<?xml version="1.0" encoding="utf-8"?>
<!-- Generator: Adobe Illustrator 24.0.2, SVG Export Plug-In . SVG Version: 6.00 Build 0)  -->
<svg version="1.1" id="Warstwa_1" xmlns="http://www.w3.org/2000/svg" xmlns:xlink="http://www.w3.org/1999/xlink" x="0px" y="0px"
	 viewBox="0 0 160.95 181.29" style="enable-background:new 0 0 160.95 181.29;" xml:space="preserve">
<style type="text/css">
	.st0{fill:#000000;}
</style>
<g>
	<path class="st0" d="M108.39,54.74c0-2.11-0.85-4.13-2.35-5.61L58.41,2.26C55.8-0.31,51.7-0.78,48.5,1.32
		C46.23,2.81,45,5.49,45,8.21l0,18.63H7.88C3.53,26.84,0,30.37,0,34.72v40.04c0,4.35,3.53,7.88,7.88,7.88h44.8
		c3.76,0,7.18-2.55,7.92-6.24c1.02-5.07-2.83-9.53-7.72-9.53H17.05c-0.71,0-1.28-0.57-1.28-1.28V43.89c0-0.71,0.57-1.28,1.28-1.28
		h35.84c4.35,0,7.88-3.53,7.88-7.88V28c0-0.48,0.58-0.73,0.93-0.39l26.93,26.5c0.36,0.36,0.36,0.94,0,1.3l-57.53,56.85
		c-3.1,3.06-3.13,8.05-0.07,11.15c1.54,1.56,3.58,2.34,5.61,2.34c2,0,4-0.76,5.54-2.27l63.87-63.12
		C107.55,58.87,108.39,56.85,108.39,54.74z"/>
	<path class="st0" d="M153.07,98.64h-44.8c-3.76,0-7.18,2.55-7.92,6.24c-1.02,5.07,2.83,9.53,7.72,9.53h35.84
		c0.71,0,1.28,0.57,1.28,1.28v21.72c0,0.71-0.57,1.28-1.28,1.28h-35.84c-4.35,0-7.88,3.53-7.88,7.88v6.72
		c0,0.48-0.58,0.73-0.93,0.39l-26.93-26.5c-0.36-0.36-0.36-0.94,0-1.3l57.53-56.85c3.1-3.06,3.13-8.05,0.07-11.15
		c-3.06-3.1-8.05-3.12-11.15-0.07l-63.87,63.12c-1.5,1.48-2.34,3.51-2.34,5.62c0,2.11,0.85,4.13,2.35,5.61l47.62,46.86
		c1.5,1.48,3.5,2.26,5.53,2.26c1.56,0,3.13-0.46,4.53-1.43c2.18-1.5,3.35-4.1,3.35-6.75l0-18.66h37.12c4.35,0,7.88-3.53,7.88-7.88
		v-40.04C160.95,102.17,157.42,98.64,153.07,98.64z"/>
</g>
</svg>
