<?xml version="1.0" encoding="utf-8"?>
<!-- Generator: Adobe Illustrator 24.0.2, SVG Export Plug-In . SVG Version: 6.00 Build 0)  -->
<svg version="1.1" id="Warstwa_1" xmlns="http://www.w3.org/2000/svg" xmlns:xlink="http://www.w3.org/1999/xlink" x="0px" y="0px"
	 viewBox="0 0 267.22 437.92" style="enable-background:new 0 0 267.22 437.92;" xml:space="preserve">
<style type="text/css">
	.st0{fill:#F4B405;}
	.st1{fill:#EA9C06;}
	.st2{fill:#FFDB05;}
	.st3{fill:#FEEF70;}
</style>
<g id="Group_61" transform="translate(19.378 5.865)">
	
		<rect id="Rectangle_27" x="-101.64" y="181.21" transform="matrix(0.1581 -0.9874 0.9874 0.1581 -114.2924 292.3488)" class="st0" width="431.86" height="63.98"/>
	<path id="Path_55" class="st0" d="M241.96,233.46c-18.81,117.81-77.1,206.44-130.17,198.04c-53.07-8.39-87.95-111.98-69.14-229.8
		S126.84-3.6,179.93,4.88S260.77,115.65,241.96,233.46z"/>
	<g id="Group_60" transform="translate(3.773 1.753)">
		<path id="Path_56" class="st1" d="M34.42,286.51l182.15,29.1c1.33-3.6,2.61-7.22,3.85-10.94l-186.54-29.8
			C34,278.79,34.29,282.66,34.42,286.51z"/>
		<path id="Path_57" class="st1" d="M221.71,43.28c-2.2-4.4-4.67-8.65-7.4-12.74l-84.33-13.5c-4.08,2.99-7.97,6.22-11.66,9.68
			L221.71,43.28z"/>
		<path id="Path_58" class="st1" d="M242.12,120.99c-0.41-3.98-0.88-7.92-1.42-11.77L76.89,83.06c-1.84,3.47-3.65,7.04-5.4,10.69
			L242.12,120.99z"/>
		<path id="Path_59" class="st1" d="M243.85,171.37c0.36-12.49,0.16-24.62-0.59-36.23L65.48,106.76c-4.64,10.78-9,22.17-12.69,34.12
			L243.85,171.37z"/>
		<path id="Path_60" class="st1" d="M33.73,264.52l189.87,30.31c2.2-7.17,4.26-14.54,6.17-22.1L34.38,241.52
			C33.93,249.31,33.7,257.01,33.73,264.52z"/>
		<path id="Path_61" class="st1" d="M182.87,382.54L48.22,361.02c2.81,8.38,6.22,16.54,10.22,24.42l108.23,17.28
			C172.55,396.4,177.97,389.66,182.87,382.54z"/>
	</g>
	
		<ellipse id="Ellipse_2" transform="matrix(0.1577 -0.9875 0.9875 0.1577 -135.8065 256.8147)" class="st2" cx="82.64" cy="208.02" rx="216.02" ry="97.2"/>
	<path id="Path_62" class="st3" d="M-13.93,327.44L168.61,49.58c-5.68-17.12-15.77-32.45-29.26-44.42L-18.92,246.11
		C-20.28,273.32-18.6,300.6-13.93,327.44z"/>
	<path id="Path_63" class="st3" d="M116.72-5.29c-0.79-0.11-1.58-0.16-2.39-0.25l-126.79,193c-0.29,1.73-0.61,3.47-0.9,5.22
		c-1.46,9.14-2.61,18.18-3.51,27.01L128.55-1.71C124.79-3.44,120.81-4.65,116.72-5.29z"/>
	<path id="Path_64" class="st1" d="M140.5,217.26c-14.11,88.35-54.42,155.28-90.02,149.68c-35.6-5.6-53.04-81.92-38.93-170.3
		S65.97,41.36,101.57,46.96S154.61,128.9,140.5,217.26z"/>
	
		<rect id="Rectangle_28" x="-79.12" y="201.56" transform="matrix(0.1581 -0.9874 0.9874 0.1581 -136.0315 256.9787)" class="st1" width="323.59" height="13.41"/>
	<path id="Path_65" class="st0" d="M153.76,219.37c-14.11,88.35-54.42,155.28-90.02,149.7s-53.04-81.92-38.93-170.3
		S79.22,43.5,114.83,49.1S167.87,131.02,153.76,219.37z"/>
	<path id="Path_66" class="st1" d="M128.64,215.37c-7.83,49.08-30.25,86.33-50.03,83.27s-29.48-45.5-21.63-94.52
		s30.25-86.31,50.03-83.27C126.8,123.89,136.5,166.29,128.64,215.37z"/>
	
		<rect id="Rectangle_29" x="-5.53" y="199.85" transform="matrix(0.1581 -0.9874 0.9874 0.1581 -134.6366 258.8007)" class="st1" width="179.94" height="17.01"/>
	<path id="Path_67" class="st2" d="M111.85,212.69c-7.85,49.11-30.25,86.33-50.03,83.27s-29.46-45.5-21.63-94.52
		s30.22-86.33,50.01-83.27C109.98,121.23,119.69,163.61,111.85,212.69z"/>
	<path id="Path_68" class="st3" d="M90.23,118.08c-19.78-3.15-42.17,34.07-50.03,83.27c-2.31,14.08-3.13,28.37-2.45,42.62
		l67.69-112.52C102.79,124.82,97.14,119.86,90.23,118.08z"/>
</g>
</svg>
