<?xml version="1.0" encoding="utf-8"?>
<!-- Generator: Adobe Illustrator 24.0.2, SVG Export Plug-In . SVG Version: 6.00 Build 0)  -->
<svg version="1.1" id="Warstwa_1" xmlns="http://www.w3.org/2000/svg" xmlns:xlink="http://www.w3.org/1999/xlink" x="0px" y="0px"
	 viewBox="0 0 427.5 59.38" style="enable-background:new 0 0 427.5 59.38;" xml:space="preserve">
<style type="text/css">
	.st0{fill:#F4B401;}
	.st1{fill:#EA9C02;}
	.st2{fill:#FFDA02;}
	.st3{fill:#FEEF6F;}
	.st4{fill:#FFFFFF;}
</style>
<g id="Group_186" transform="translate(880.8 1553.027)">
	<g id="Group_61" transform="translate(19.321 4.427)">
		
			<rect id="Rectangle_27" x="-851.56" y="-1525.65" transform="matrix(0.1581 -0.9874 0.9874 0.1581 803.9952 -2102.207)" class="st0" width="41.6" height="6.16"/>
		<path id="Path_55" class="st0" d="M-818.45-1520.62c-1.81,11.35-7.43,19.89-12.53,19.08c-5.1-0.81-8.47-10.79-6.66-22.14
			c1.81-11.35,8.11-19.78,13.23-18.96C-819.3-1541.82-816.64-1531.97-818.45-1520.62z"/>
		<g id="Group_60" transform="translate(2.939 1.364)">
			<path id="Path_56" class="st1" d="M-841.02-1516.71l17.54,2.8c0.13-0.35,0.25-0.7,0.37-1.05l-17.97-2.87
				C-841.06-1517.45-841.04-1517.08-841.02-1516.71z"/>
			<path id="Path_57" class="st1" d="M-822.98-1540.14c-0.21-0.42-0.45-0.83-0.71-1.23l-8.12-1.3c-0.39,0.29-0.76,0.6-1.11,0.93
				L-822.98-1540.14z"/>
			<path id="Path_58" class="st1" d="M-821.02-1532.65c-0.04-0.38-0.08-0.76-0.14-1.13l-15.78-2.52c-0.18,0.33-0.35,0.68-0.52,1.03
				L-821.02-1532.65z"/>
			<path id="Path_59" class="st1" d="M-820.85-1527.8c0.03-1.2,0.01-2.37-0.06-3.49l-17.13-2.73c-0.47,1.07-0.87,2.17-1.22,3.29
				L-820.85-1527.8z"/>
			<path id="Path_60" class="st1" d="M-841.09-1518.83l18.29,2.92c0.21-0.69,0.41-1.4,0.59-2.13l-18.82-3.01
				C-841.06-1520.29-841.09-1519.55-841.09-1518.83z"/>
			<path id="Path_61" class="st1" d="M-826.72-1507.45l-12.97-2.07c0.27,0.81,0.6,1.59,0.99,2.35l10.42,1.67
				C-827.72-1506.11-827.19-1506.77-826.72-1507.45z"/>
		</g>
		
			<ellipse id="Ellipse_2" transform="matrix(0.1577 -0.9875 0.9875 0.1577 801.7058 -2106.2368)" class="st2" cx="-833.8" cy="-1523.07" rx="20.81" ry="9.36"/>
		<path id="Path_62" class="st3" d="M-843.11-1511.57l17.58-26.77c-0.55-1.65-1.52-3.13-2.82-4.28l-15.25,23.21
			C-843.72-1516.78-843.56-1514.15-843.11-1511.57z"/>
		<path id="Path_63" class="st3" d="M-830.51-1543.62c-0.08,0-0.15-0.01-0.23-0.03l-12.21,18.59c-0.03,0.17-0.06,0.33-0.09,0.5
			c-0.14,0.88-0.25,1.75-0.34,2.6l14.01-21.33C-829.73-1543.44-830.12-1543.56-830.51-1543.62z"/>
		<path id="Path_64" class="st1" d="M-828.23-1522.18c-1.36,8.51-5.24,14.96-8.67,14.42s-5.11-7.89-3.75-16.41
			s5.24-14.96,8.67-14.42S-826.87-1530.69-828.23-1522.18z"/>
		
			<rect id="Rectangle_28" x="-849.39" y="-1523.69" transform="matrix(0.1581 -0.9874 0.9874 0.1581 801.8992 -2105.6138)" class="st1" width="31.17" height="1.29"/>
		<path id="Path_65" class="st0" d="M-826.95-1521.97c-1.36,8.51-5.24,14.96-8.67,14.42s-5.11-7.89-3.75-16.41
			c1.36-8.52,5.24-14.96,8.67-14.42S-825.59-1530.49-826.95-1521.97z"/>
		<path id="Path_66" class="st1" d="M-829.37-1522.36c-0.75,4.73-2.91,8.32-4.82,8.02c-1.9-0.3-2.84-4.38-2.08-9.11
			s2.91-8.31,4.82-8.02C-829.55-1531.18-828.61-1527.09-829.37-1522.36z"/>
		
			<rect id="Rectangle_29" x="-842.3" y="-1523.86" transform="matrix(0.1581 -0.9874 0.9874 0.1581 802.0339 -2105.4355)" class="st1" width="17.33" height="1.64"/>
		<path id="Path_67" class="st2" d="M-830.99-1522.62c-0.76,4.73-2.91,8.32-4.82,8.02c-1.9-0.3-2.84-4.38-2.08-9.11
			s2.91-8.32,4.82-8.02C-831.16-1531.43-830.24-1527.35-830.99-1522.62z"/>
		<path id="Path_68" class="st3" d="M-833.07-1531.74c-1.91-0.3-4.06,3.28-4.82,8.02c-0.22,1.36-0.3,2.74-0.23,4.11l6.52-10.84
			C-831.85-1531.08-832.4-1531.57-833.07-1531.74z"/>
	</g>
	<path id="Path_107" class="st4" d="M-855.09-1497.49c-6.85,0.12-13.44-2.59-18.22-7.49c-4.87-4.7-7.59-11.21-7.49-17.99
		c-0.09-6.77,2.62-13.28,7.49-17.99c4.78-4.91,11.37-7.62,18.22-7.49c6.04-0.14,11.92,2,16.45,6h4.02l-4.5,8.99h-5.73v-2.27
		c-2.84-2.51-6.53-3.85-10.32-3.73c-4.33-0.05-8.49,1.68-11.5,4.8c-3.15,3.06-4.9,7.3-4.81,11.69c-0.08,4.4,1.66,8.63,4.81,11.69
		c3.01,3.11,7.17,4.85,11.5,4.8c4.08,0.01,8.01-1.54,10.99-4.33l3.6-1.67h5.06v8.99h-3.13
		C-843.17-1499.49-849.04-1497.35-855.09-1497.49z"/>
	<path id="Path_108" class="st4" d="M-738.31-1497.48h-15.31v-8.99h3v-11.99c0.06-3.2-1.19-6.28-3.48-8.51
		c-2.18-2.26-5.21-3.52-8.35-3.48c-3.14-0.04-6.17,1.22-8.35,3.48c-2.28,2.23-3.54,5.31-3.48,8.51v11.99h3v8.99h-15.31v-8.99h3
		v-23.98h-3.9l4.5-8.99h8.73v3.13c2.18-2.09,6.12-3.13,11.82-3.13c5.63-0.1,11.05,2.14,14.97,6.18c4.02,3.87,6.25,9.23,6.18,14.8
		v11.99h3L-738.31-1497.48z"/>
	<path id="Path_109" class="st4" d="M-711.4-1497.47c-6.14,0.47-11.95-2.86-14.65-8.39c-1.29-2.5-1.98-5.28-2-8.09v-13.49h-3v-8.99
		h3v-8.35l9.33-4.66v13.02h17.99v8.99h-17.99v13.49c0.02,1.36,0.36,2.7,1,3.9c1.15,2.4,3.67,3.83,6.33,3.6
		c1.45,0.05,2.9-0.05,4.33-0.3v-2.7h9.33v8.13c-1.84,1.51-4.03,2.55-6.36,3.03C-706.51-1497.74-708.95-1497.46-711.4-1497.47z"/>
	<path id="Path_110" class="st4" d="M-673.24-1497.48h-15.31v-8.99h3v-29.51l12.32-4.13v9.66h-3.02v23.98h3L-673.24-1497.48z
		 M-679.97-1541.01c-1.66,0.04-3.26-0.63-4.4-1.83c-1.16-1.08-1.8-2.6-1.76-4.18c-0.03-1.58,0.61-3.1,1.76-4.18
		c1.14-1.21,2.74-1.87,4.4-1.83c1.66-0.04,3.26,0.62,4.4,1.83c1.16,1.08,1.8,2.6,1.77,4.18c0.03,1.58-0.61,3.1-1.77,4.18
		C-676.71-1541.64-678.31-1540.97-679.97-1541.01z"/>
	<path id="Path_111" class="st4" d="M-613.32-1497.48h-15.31v-8.99h2.99v-11.99c0.06-3.2-1.19-6.28-3.48-8.51
		c-2.18-2.26-5.21-3.52-8.35-3.48c-3.14-0.04-6.17,1.22-8.35,3.48c-2.28,2.23-3.54,5.31-3.48,8.51v11.99h3v8.99h-15.31v-8.99h3
		v-23.98h-3.9l4.5-8.99h8.74v3.13c2.17-2.09,6.12-3.13,11.82-3.13c5.63-0.1,11.05,2.14,14.97,6.18c4.02,3.87,6.25,9.23,6.18,14.8
		v11.99h3V-1497.48z"/>
	<path id="Path_112" class="st4" d="M-559.44-1497.48h-8.73v-3.12c-2.18,2.09-6.12,3.13-11.82,3.13c-5.63,0.1-11.05-2.14-14.97-6.18
		c-4.02-3.87-6.25-9.23-6.18-14.8v-11.99h-3.91l4.5-8.99h11.72v8.99h-2.99v11.99c-0.06,3.2,1.2,6.28,3.48,8.51
		c2.18,2.26,5.21,3.52,8.35,3.48c3.14,0.04,6.17-1.22,8.35-3.48c2.28-2.23,3.54-5.31,3.48-8.51v-11.99h-3.01v-8.99h15.31v8.99h-2.98
		v23.98h3.9L-559.44-1497.48z"/>
	<path id="Path_113" class="st4" d="M-524.4-1497.48c-5.63,0.1-11.05-2.14-14.97-6.18c-4.02-3.87-6.25-9.23-6.18-14.8
		c-0.07-5.58,2.16-10.93,6.18-14.8c3.92-4.04,9.34-6.28,14.97-6.18c5.99-0.34,11.83,1.91,16.05,6.16c3.4,3.59,5.23,8.38,5.09,13.32
		v4.5h-32.71c0.44,2.38,1.76,4.5,3.68,5.96c2.14,1.98,4.96,3.06,7.88,3.03c3.99-0.33,7.57-2.56,9.62-6h8.53v8.99h-3.9
		C-513.83-1499.54-519.01-1497.36-524.4-1497.48z M-512.99-1524.45c-0.31-1.18-1.56-2.47-3.75-3.88c-2.3-1.44-4.97-2.17-7.68-2.11
		c-2.45-0.02-4.85,0.75-6.83,2.2c-1.53,0.91-2.78,2.23-3.62,3.8L-512.99-1524.45z"/>
	<path id="Path_114" class="st4" d="M-465.32-1509.43h-5.11l-7.24-3.62v-10.69c1.84-1.02,3.33-1.81,4.45-2.36
		c2.41-1.22,4.21-2.21,5.39-2.96c3.42-2.15,5.13-4.1,5.13-5.83c0-1.8-1.13-3.07-3.4-3.83c-1.26-0.43-2.59-0.66-3.93-0.67
		c-2.17,0-4.32,0.37-6.36,1.1c-1.39,0.47-2.72,1.09-3.96,1.87v3.03h-5.7l-3.9-7.76c1.65-1.64,3.57-3.01,5.66-4.03
		c4.45-2.17,9.34-3.27,14.29-3.2c4.17-0.27,8.33,0.77,11.89,2.96c3.28,2.46,5.08,6.43,4.76,10.52c-0.17,4.36-2.47,8.36-6.16,10.69
		c-2,1.47-4.13,2.77-6.36,3.86c-1.48,0.8-2.31,1.22-2.46,1.27v0.67h3L-465.32-1509.43z M-471.48-1493.65
		c-1.66,0.04-3.26-0.63-4.4-1.83c-1.16-1.08-1.8-2.6-1.77-4.18c-0.03-1.58,0.61-3.1,1.77-4.18c1.14-1.21,2.74-1.87,4.4-1.83
		c1.66-0.04,3.26,0.62,4.4,1.83c1.16,1.08,1.8,2.6,1.76,4.18c0.03,1.58-0.61,3.1-1.76,4.18
		C-468.22-1494.27-469.82-1493.61-471.48-1493.65z"/>
</g>
</svg>
