<?xml version="1.0" encoding="utf-8"?>
<!-- Generator: Adobe Illustrator 24.0.2, SVG Export Plug-In . SVG Version: 6.00 Build 0)  -->
<svg version="1.1" id="Warstwa_1" xmlns="http://www.w3.org/2000/svg" xmlns:xlink="http://www.w3.org/1999/xlink" x="0px" y="0px"
	 viewBox="0 0 471.7 65.52" style="enable-background:new 0 0 471.7 65.52;" xml:space="preserve">
<style type="text/css">
	.st0{fill:#242625;}
	.st1{fill:#0B0C0C;}
	.st2{fill:#010202;}
	.st3{fill:#292B2A;}
	.st4{fill:#787878;}
</style>
<g id="Group_187" transform="translate(1220.801 1553.027)">
	<path id="Path_107" class="st0" d="M-1192.43-1491.75c-7.56,0.14-14.83-2.85-20.1-8.27c-5.38-5.19-8.37-12.37-8.27-19.84
		c-0.1-7.47,2.89-14.66,8.27-19.84c5.27-5.41,12.55-8.41,20.1-8.27c6.67-0.16,13.15,2.2,18.15,6.62h4.44l-4.96,9.92h-6.32v-2.5
		c-3.14-2.77-7.21-4.24-11.39-4.12c-4.78-0.06-9.37,1.85-12.69,5.29c-3.48,3.38-5.4,8.05-5.31,12.9c-0.09,4.85,1.83,9.52,5.31,12.9
		c3.32,3.44,7.91,5.35,12.69,5.29c4.5,0.01,8.84-1.7,12.13-4.78l3.97-1.84h5.59v9.92h-3.46
		C-1179.28-1493.95-1185.76-1491.59-1192.43-1491.75z"/>
	<path id="Path_108" class="st0" d="M-1063.58-1491.73h-16.89v-9.92h3.31v-13.23c0.07-3.53-1.32-6.92-3.84-9.39
		c-2.41-2.5-5.74-3.89-9.21-3.84c-3.47-0.05-6.81,1.34-9.21,3.84c-2.52,2.47-3.91,5.86-3.84,9.39v13.23h3.31v9.92h-16.89v-9.92h3.31
		v-26.46h-4.3l4.96-9.92h9.63v3.46c2.4-2.3,6.75-3.46,13.04-3.46c6.21-0.11,12.19,2.36,16.52,6.82c4.43,4.27,6.9,10.18,6.82,16.33
		v13.23h3.31L-1063.58-1491.73z"/>
	<path id="Path_109" class="st0" d="M-1033.89-1491.73c-6.78,0.52-13.19-3.15-16.17-9.26c-1.43-2.76-2.18-5.82-2.21-8.93v-14.88
		h-3.31v-9.92h3.31v-9.21l10.29-5.14v14.37h19.84v9.92h-19.85v14.88c0.02,1.5,0.4,2.97,1.1,4.3c1.27,2.65,4.05,4.23,6.98,3.97
		c1.6,0.05,3.2-0.06,4.78-0.33v-2.98h10.29v8.97c-2.03,1.67-4.44,2.81-7.02,3.34C-1028.49-1492.02-1031.19-1491.72-1033.89-1491.73z
		"/>
	<path id="Path_110" class="st0" d="M-991.78-1491.73h-16.89v-9.92h3.31v-32.56l13.6-4.56v10.66h-3.33v26.46h3.31L-991.78-1491.73z
		 M-999.2-1539.77c-1.83,0.04-3.59-0.69-4.85-2.02c-1.28-1.19-1.98-2.86-1.95-4.61c-0.04-1.74,0.67-3.42,1.95-4.61
		c1.26-1.33,3.02-2.07,4.85-2.02c1.83-0.05,3.59,0.69,4.85,2.02c1.28,1.19,1.99,2.86,1.95,4.61c0.04,1.74-0.67,3.42-1.95,4.61
		C-995.61-1540.46-997.37-1539.72-999.2-1539.77z"/>
	<path id="Path_111" class="st0" d="M-925.67-1491.73h-16.89v-9.92h3.3v-13.23c0.07-3.53-1.32-6.92-3.84-9.39
		c-2.41-2.5-5.74-3.89-9.21-3.84c-3.47-0.05-6.81,1.34-9.21,3.84c-2.52,2.47-3.91,5.86-3.84,9.39v13.23h3.3v9.92h-16.89v-9.92h3.3
		v-26.46h-4.3l4.96-9.92h9.64v3.46c2.4-2.3,6.75-3.46,13.04-3.46c6.21-0.11,12.19,2.36,16.52,6.82c4.43,4.27,6.9,10.18,6.82,16.33
		v13.23h3.31V-1491.73z"/>
	<path id="Path_112" class="st0" d="M-866.21-1491.73h-9.63v-3.45c-2.4,2.3-6.75,3.46-13.04,3.46c-6.21,0.11-12.19-2.36-16.52-6.82
		c-4.43-4.27-6.9-10.18-6.82-16.33v-13.23h-4.31l4.96-9.92h12.93v9.92h-3.3v13.23c-0.07,3.53,1.32,6.92,3.84,9.39
		c2.41,2.5,5.74,3.89,9.21,3.84c3.47,0.05,6.81-1.34,9.21-3.84c2.52-2.47,3.91-5.86,3.84-9.39v-13.23h-3.33v-9.92h16.89v9.92h-3.29
		v26.46h4.3L-866.21-1491.73z"/>
	<path id="Path_113" class="st0" d="M-827.56-1491.73c-6.21,0.11-12.19-2.36-16.52-6.82c-4.43-4.27-6.9-10.18-6.82-16.33
		c-0.08-6.15,2.39-12.06,6.82-16.33c4.33-4.46,10.31-6.92,16.52-6.82c6.61-0.37,13.05,2.1,17.71,6.8c3.75,3.96,5.77,9.25,5.62,14.7
		v4.96h-36.09c0.49,2.62,1.94,4.97,4.06,6.58c2.36,2.18,5.47,3.38,8.69,3.34c4.4-0.36,8.35-2.83,10.62-6.62h9.41v9.92h-4.3
		C-815.89-1494.01-821.61-1491.61-827.56-1491.73z M-814.96-1521.5c-0.34-1.3-1.72-2.73-4.13-4.28c-2.53-1.59-5.48-2.4-8.47-2.33
		c-2.71-0.02-5.35,0.83-7.53,2.42c-1.69,1-3.07,2.46-3.99,4.19L-814.96-1521.5z"/>
	<path id="Path_114" class="st0" d="M-762.37-1504.93H-768l-7.99-3.99v-11.8c2.03-1.13,3.67-2,4.91-2.61
		c2.66-1.35,4.65-2.44,5.95-3.27c3.77-2.38,5.66-4.52,5.66-6.43c0-1.98-1.25-3.39-3.75-4.22c-1.4-0.48-2.86-0.73-4.33-0.74
		c-2.39,0-4.77,0.41-7.02,1.21c-1.53,0.52-3,1.21-4.37,2.06v3.34h-6.29l-4.3-8.56c1.83-1.81,3.94-3.32,6.25-4.45
		c4.91-2.4,10.31-3.6,15.77-3.53c4.61-0.29,9.19,0.85,13.12,3.27c3.62,2.72,5.6,7.1,5.25,11.61c-0.19,4.81-2.73,9.22-6.8,11.8
		c-2.21,1.63-4.56,3.05-7.02,4.26c-1.64,0.88-2.54,1.35-2.72,1.4v0.73h3.3L-762.37-1504.93z M-769.16-1487.51
		c-1.83,0.05-3.59-0.69-4.85-2.02c-1.28-1.19-1.99-2.86-1.95-4.61c-0.04-1.74,0.67-3.42,1.95-4.61c1.26-1.33,3.02-2.07,4.85-2.02
		c1.83-0.05,3.6,0.69,4.85,2.02c1.28,1.19,1.98,2.86,1.95,4.61c0.04,1.74-0.67,3.42-1.95,4.61
		C-765.57-1488.2-767.33-1487.46-769.16-1487.51z"/>
	<g id="Group_188" transform="translate(19.248 4.236)">
		
			<rect id="Rectangle_27" x="-1186.69" y="-1522.76" transform="matrix(0.1581 -0.9874 0.9874 0.1581 520.4752 -2428.3037)" class="st1" width="45.9" height="6.8"/>
		<path id="Path_55" class="st1" d="M-1150.16-1517.21c-2,12.52-8.19,21.95-13.82,21.04c-5.63-0.9-9.35-11.9-7.35-24.43
			c2-12.52,8.95-21.82,14.59-20.92C-1151.1-1540.61-1148.16-1529.73-1150.16-1517.21z"/>
		<g id="Group_60" transform="translate(2.939 1.365)">
			<path id="Path_56" class="st2" d="M-1174.76-1512.75l19.35,3.09c0.14-0.38,0.28-0.77,0.41-1.16l-19.83-3.17
				C-1174.81-1513.57-1174.78-1513.16-1174.76-1512.75z"/>
			<path id="Path_57" class="st2" d="M-1154.85-1538.6c-0.23-0.47-0.5-0.92-0.79-1.35l-8.96-1.43c-0.43,0.32-0.84,0.66-1.23,1.03
				L-1154.85-1538.6z"/>
			<path id="Path_58" class="st2" d="M-1152.69-1530.34c-0.04-0.42-0.09-0.84-0.15-1.25l-17.41-2.78c-0.2,0.37-0.39,0.75-0.57,1.14
				L-1152.69-1530.34z"/>
			<path id="Path_59" class="st2" d="M-1152.5-1524.99c0.04-1.33,0.02-2.62-0.06-3.85l-18.89-3.02c-0.49,1.15-0.95,2.36-1.35,3.63
				L-1152.5-1524.99z"/>
			<path id="Path_60" class="st2" d="M-1174.84-1515.09l20.18,3.22c0.24-0.76,0.45-1.54,0.65-2.35l-20.77-3.32
				C-1174.81-1516.7-1174.84-1515.89-1174.84-1515.09z"/>
			<path id="Path_61" class="st2" d="M-1158.98-1502.54l-14.31-2.29c0.3,0.89,0.66,1.76,1.09,2.6l11.51,1.84
				C-1160.08-1501.07-1159.5-1501.79-1158.98-1502.54z"/>
		</g>
		
			<ellipse id="Ellipse_2" transform="matrix(0.1577 -0.9875 0.9875 0.1577 517.8544 -2432.7009)" class="st0" cx="-1167.1" cy="-1519.91" rx="22.96" ry="10.33"/>
		<path id="Path_62" class="st3" d="M-1177.36-1507.22l19.4-29.54c-0.6-1.82-1.67-3.45-3.1-4.72l-16.83,25.61
			C-1178.03-1512.97-1177.86-1510.07-1177.36-1507.22z"/>
		<path id="Path_63" class="st3" d="M-1163.48-1542.59c-0.08,0-0.17-0.02-0.25-0.02l-13.48,20.51c-0.03,0.18-0.06,0.37-0.1,0.56
			c-0.16,0.97-0.28,1.93-0.37,2.88l15.46-23.53C-1162.62-1542.38-1163.04-1542.52-1163.48-1542.59z"/>
		<path id="Path_64" class="st1" d="M-1160.94-1518.93c-1.5,9.39-5.78,16.52-9.57,15.91c-3.79-0.61-5.64-8.71-4.14-18.1
			s5.78-16.52,9.57-15.91C-1161.29-1536.43-1159.45-1528.32-1160.94-1518.93z"/>
		
			<rect id="Rectangle_28" x="-1184.3" y="-1520.6" transform="matrix(0.1581 -0.9874 0.9874 0.1581 518.1664 -2432.0662)" class="st1" width="34.4" height="1.42"/>
		<path id="Path_65" class="st4" d="M-1159.54-1518.71c-1.5,9.39-5.78,16.52-9.57,15.91c-3.79-0.6-5.64-8.71-4.14-18.1
			s5.78-16.52,9.57-15.91C-1159.89-1536.2-1158.04-1528.1-1159.54-1518.71z"/>
		<path id="Path_66" class="st1" d="M-1162.21-1519.13c-0.83,5.22-3.21,9.17-5.32,8.84c-2.1-0.33-3.13-4.84-2.3-10.06
			c0.83-5.22,3.21-9.17,5.32-8.84C-1162.41-1528.85-1161.37-1524.35-1162.21-1519.13z"/>
		
			<rect id="Rectangle_29" x="-1176.47" y="-1520.78" transform="matrix(0.1581 -0.9874 0.9874 0.1581 518.3152 -2431.8699)" class="st1" width="19.13" height="1.81"/>
		<path id="Path_67" class="st0" d="M-1164.01-1519.42c-0.83,5.22-3.21,9.18-5.32,8.84c-2.1-0.34-3.13-4.84-2.3-10.06
			c0.83-5.22,3.21-9.17,5.32-8.84C-1164.2-1529.14-1163.16-1524.63-1164.01-1519.42z"/>
		<path id="Path_68" class="st3" d="M-1166.29-1529.47c-2.1-0.33-4.48,3.62-5.32,8.84c-0.25,1.5-0.33,3.02-0.26,4.53l7.2-11.98
			C-1164.97-1528.78-1165.57-1529.29-1166.29-1529.47z"/>
	</g>
</g>
</svg>
