<?xml version="1.0" encoding="utf-8"?>
<!-- Generator: Adobe Illustrator 24.0.2, SVG Export Plug-In . SVG Version: 6.00 Build 0)  -->
<svg version="1.1" id="Warstwa_1" xmlns="http://www.w3.org/2000/svg" xmlns:xlink="http://www.w3.org/1999/xlink" x="0px" y="0px"
	 viewBox="0 0 247.42 77.35" style="enable-background:new 0 0 247.42 77.35;" xml:space="preserve">
<style type="text/css">
	.st0{fill:#FFDA02;}
	.st1{fill:#FEEF6F;}
	.st2{fill:#F4B401;}
</style>
<g id="Group_137-2" transform="translate(836 761.44)">
	<path id="Rectangle_46-2" class="st0" d="M-835.02-761.44h245.45c0.54,0,0.98,0.44,0.98,0.98v75.39c0,0.54-0.44,0.98-0.98,0.98
		h-245.45c-0.54,0-0.98-0.44-0.98-0.98v-75.39C-836-761-835.56-761.44-835.02-761.44z"/>
	<path id="Path_101-2" class="st1" d="M-588.58-749.02L-588.58-749.02c-7.51-2.28-15.32-3.44-23.17-3.44h-216.28
		c-2.88,0-5.68,0.96-7.97,2.72l0,0v-9.4c0-1.27,1.03-2.3,2.3-2.3l0,0h242.82c1.27,0,2.3,1.03,2.3,2.3l0,0L-588.58-749.02z"/>
	<path id="Path_102-2" class="st2" d="M-590.88-684.09H-833.7c-1.27,0-2.3-1.03-2.3-2.3l0,0v-3.21l0,0c2,1.28,4.32,1.96,6.7,1.96
		h219.24c6.36,0,12.71-0.52,18.99-1.55l2.48-0.41v3.21C-588.58-685.12-589.61-684.09-590.88-684.09z"/>
</g>
</svg>
