<?xml version="1.0" encoding="utf-8"?>
<!-- Generator: Adobe Illustrator 24.0.2, SVG Export Plug-In . SVG Version: 6.00 Build 0)  -->
<svg version="1.1" id="Warstwa_1" xmlns="http://www.w3.org/2000/svg" xmlns:xlink="http://www.w3.org/1999/xlink" x="0px" y="0px"
	 viewBox="0 0 247.42 77.35" style="enable-background:new 0 0 247.42 77.35;" xml:space="preserve">
<style type="text/css">
	.st0{fill:#242625;}
	.st1{fill:#323333;}
	.st2{fill:#0B0C0C;}
</style>
<g id="Group_113">
	<path id="Rectangle_46" class="st0" d="M0.98,0h245.45c0.54,0,0.98,0.44,0.98,0.98v75.39c0,0.54-0.44,0.98-0.98,0.98H0.98
		C0.44,77.35,0,76.91,0,76.37V0.98C0,0.44,0.44,0,0.98,0z"/>
	<path id="Path_101" class="st1" d="M247.42,12.43L247.42,12.43c-7.51-2.28-15.32-3.44-23.17-3.44H7.97C5.09,8.98,2.28,9.94,0,11.7
		l0,0V2.3C0,1.03,1.03,0,2.3,0h0h242.82c1.27,0,2.3,1.03,2.3,2.3l0,0L247.42,12.43z"/>
	<path id="Path_102" class="st2" d="M245.12,77.35H2.3c-1.27,0-2.3-1.03-2.3-2.3l0,0v-3.21l0,0c2,1.28,4.32,1.96,6.7,1.96h219.24
		c6.36,0,12.71-0.52,18.99-1.55l2.48-0.41v3.21C247.42,76.32,246.39,77.35,245.12,77.35z"/>
</g>
</svg>
