<?xml version="1.0" encoding="utf-8"?>
<!-- Generator: Adobe Illustrator 24.0.2, SVG Export Plug-In . SVG Version: 6.00 Build 0)  -->
<svg version="1.1" id="Warstwa_1" xmlns="http://www.w3.org/2000/svg" xmlns:xlink="http://www.w3.org/1999/xlink" x="0px" y="0px"
	 viewBox="0 0 457.36 35.77" style="enable-background:new 0 0 457.36 35.77;" xml:space="preserve">
<style type="text/css">
	.st0{filter:url(#Adobe_OpacityMaskFilter);}
	.st1{filter:url(#Adobe_OpacityMaskFilter_1_);}
	.st2{mask:url(#SVGID_1_);fill:url(#SVGID_2_);}
	.st3{fill:url(#SVGID_3_);}
	.st4{filter:url(#Adobe_OpacityMaskFilter_2_);}
	.st5{filter:url(#Adobe_OpacityMaskFilter_3_);}
	.st6{mask:url(#SVGID_4_);fill:url(#SVGID_5_);}
	.st7{fill:url(#SVGID_6_);}
	.st8{filter:url(#Adobe_OpacityMaskFilter_4_);}
	.st9{filter:url(#Adobe_OpacityMaskFilter_5_);}
	.st10{mask:url(#SVGID_7_);fill:url(#SVGID_8_);}
	.st11{fill:url(#SVGID_9_);}
</style>
<g>
	<g>
		<defs>
			<filter id="Adobe_OpacityMaskFilter" filterUnits="userSpaceOnUse" x="2.66" y="0" width="452.05" height="35.77">
				<feFlood  style="flood-color:white;flood-opacity:1" result="back"/>
				<feBlend  in="SourceGraphic" in2="back" mode="normal"/>
			</filter>
		</defs>
		<mask maskUnits="userSpaceOnUse" x="2.66" y="0" width="452.05" height="35.77" id="SVGID_1_">
			<g class="st0">
				<defs>
					<filter id="Adobe_OpacityMaskFilter_1_" filterUnits="userSpaceOnUse" x="2.66" y="0" width="452.05" height="35.77">
						<feFlood  style="flood-color:white;flood-opacity:1" result="back"/>
						<feBlend  in="SourceGraphic" in2="back" mode="normal"/>
					</filter>
				</defs>
				<mask maskUnits="userSpaceOnUse" x="2.66" y="0" width="452.05" height="35.77" id="SVGID_1_">
					<g class="st1">
					</g>
				</mask>
				
					<radialGradient id="SVGID_2_" cx="-7.024" cy="1040.2241" r="61.065" gradientTransform="matrix(3.7014 0 0 0.2929 254.6808 -286.8006)" gradientUnits="userSpaceOnUse">
					<stop  offset="0" style="stop-color:#FFFFFF"/>
					<stop  offset="1" style="stop-color:#000000"/>
				</radialGradient>
				<path class="st2" d="M454.71,17.89c0,9.88-101.2,17.89-226.03,17.89S2.66,27.76,2.66,17.89C2.66,8.01,103.85,0,228.68,0
					S454.71,8.01,454.71,17.89z"/>
			</g>
		</mask>
		
			<radialGradient id="SVGID_3_" cx="-7.024" cy="1040.2241" r="61.065" gradientTransform="matrix(3.7014 0 0 0.2929 254.6808 -286.8006)" gradientUnits="userSpaceOnUse">
			<stop  offset="0" style="stop-color:#FFDA02"/>
			<stop  offset="1" style="stop-color:#020203;stop-opacity:0"/>
		</radialGradient>
		<path class="st3" d="M454.71,17.89c0,9.88-101.2,17.89-226.03,17.89S2.66,27.76,2.66,17.89C2.66,8.01,103.85,0,228.68,0
			S454.71,8.01,454.71,17.89z"/>
	</g>
	<g>
		<defs>
			<filter id="Adobe_OpacityMaskFilter_2_" filterUnits="userSpaceOnUse" x="0" y="14.36" width="457.36" height="7.05">
				<feFlood  style="flood-color:white;flood-opacity:1" result="back"/>
				<feBlend  in="SourceGraphic" in2="back" mode="normal"/>
			</filter>
		</defs>
		<mask maskUnits="userSpaceOnUse" x="0" y="14.36" width="457.36" height="7.05" id="SVGID_4_">
			<g class="st4">
				<defs>
					<filter id="Adobe_OpacityMaskFilter_3_" filterUnits="userSpaceOnUse" x="0" y="14.36" width="457.36" height="7.05">
						<feFlood  style="flood-color:white;flood-opacity:1" result="back"/>
						<feBlend  in="SourceGraphic" in2="back" mode="normal"/>
					</filter>
				</defs>
				<mask maskUnits="userSpaceOnUse" x="0" y="14.36" width="457.36" height="7.05" id="SVGID_4_">
					<g class="st5">
					</g>
				</mask>
				
					<radialGradient id="SVGID_5_" cx="-53.9775" cy="6609.4487" r="75.9744" gradientTransform="matrix(3.0088 0 0 0.0464 391.0872 -289.0799)" gradientUnits="userSpaceOnUse">
					<stop  offset="0" style="stop-color:#FFFFFF"/>
					<stop  offset="0.0882" style="stop-color:#F8F8F8"/>
					<stop  offset="0.2164" style="stop-color:#E5E5E5"/>
					<stop  offset="0.3692" style="stop-color:#C5C5C5"/>
					<stop  offset="0.5409" style="stop-color:#989898"/>
					<stop  offset="0.7284" style="stop-color:#606060"/>
					<stop  offset="0.9262" style="stop-color:#1B1B1B"/>
					<stop  offset="1" style="stop-color:#000000"/>
				</radialGradient>
				<path class="st6" d="M457.36,17.89c0,1.95-102.38,3.53-228.68,3.53S0,19.83,0,17.89c0-1.95,102.38-3.53,228.68-3.53
					S457.36,15.94,457.36,17.89z"/>
			</g>
		</mask>
		
			<radialGradient id="SVGID_6_" cx="-53.9775" cy="6609.4487" r="75.9744" gradientTransform="matrix(3.0088 0 0 0.0464 391.0872 -289.0799)" gradientUnits="userSpaceOnUse">
			<stop  offset="0" style="stop-color:#FFDA02"/>
			<stop  offset="0.0901" style="stop-color:#F4D114;stop-opacity:0.9099"/>
			<stop  offset="0.2211" style="stop-color:#D8B927;stop-opacity:0.7789"/>
			<stop  offset="0.3772" style="stop-color:#AE9533;stop-opacity:0.6228"/>
			<stop  offset="0.5526" style="stop-color:#7A6A35;stop-opacity:0.4474"/>
			<stop  offset="0.7441" style="stop-color:#433C2A;stop-opacity:0.2559"/>
			<stop  offset="0.9461" style="stop-color:#0D0E0E;stop-opacity:0.0539"/>
			<stop  offset="1" style="stop-color:#020203;stop-opacity:0"/>
		</radialGradient>
		<path class="st7" d="M457.36,17.89c0,1.95-102.38,3.53-228.68,3.53S0,19.83,0,17.89c0-1.95,102.38-3.53,228.68-3.53
			S457.36,15.94,457.36,17.89z"/>
	</g>
	<g>
		<defs>
			<filter id="Adobe_OpacityMaskFilter_4_" filterUnits="userSpaceOnUse" x="139.35" y="14.43" width="178.67" height="6.9">
				<feFlood  style="flood-color:white;flood-opacity:1" result="back"/>
				<feBlend  in="SourceGraphic" in2="back" mode="normal"/>
			</filter>
		</defs>
		<mask maskUnits="userSpaceOnUse" x="139.35" y="14.43" width="178.67" height="6.9" id="SVGID_7_">
			<g class="st8">
				<defs>
					<filter id="Adobe_OpacityMaskFilter_5_" filterUnits="userSpaceOnUse" x="139.35" y="14.43" width="178.67" height="6.9">
						<feFlood  style="flood-color:white;flood-opacity:1" result="back"/>
						<feBlend  in="SourceGraphic" in2="back" mode="normal"/>
					</filter>
				</defs>
				<mask maskUnits="userSpaceOnUse" x="139.35" y="14.43" width="178.67" height="6.9" id="SVGID_7_">
					<g class="st9">
					</g>
				</mask>
				
					<radialGradient id="SVGID_8_" cx="-53.9776" cy="2592.5027" r="29.6923" gradientTransform="matrix(3.0088 0 0 0.1163 391.0872 -283.4924)" gradientUnits="userSpaceOnUse">
					<stop  offset="0" style="stop-color:#FFFFFF"/>
					<stop  offset="1" style="stop-color:#000000"/>
				</radialGradient>
				<path class="st10" d="M318.02,17.89c0,1.91-40,3.45-89.33,3.45c-49.34,0-89.33-1.55-89.33-3.45c0-1.91,40-3.45,89.33-3.45
					C278.02,14.43,318.02,15.98,318.02,17.89z"/>
			</g>
		</mask>
		
			<radialGradient id="SVGID_9_" cx="-53.9776" cy="2592.5027" r="29.6923" gradientTransform="matrix(3.0088 0 0 0.1163 391.0872 -283.4924)" gradientUnits="userSpaceOnUse">
			<stop  offset="0" style="stop-color:#FFFFFF"/>
			<stop  offset="1" style="stop-color:#020203;stop-opacity:0"/>
		</radialGradient>
		<path class="st11" d="M318.02,17.89c0,1.91-40,3.45-89.33,3.45c-49.34,0-89.33-1.55-89.33-3.45c0-1.91,40-3.45,89.33-3.45
			C278.02,14.43,318.02,15.98,318.02,17.89z"/>
	</g>
</g>
</svg>
