<?xml version="1.0" encoding="utf-8"?>
<!-- Generator: Adobe Illustrator 24.0.2, SVG Export Plug-In . SVG Version: 6.00 Build 0)  -->
<svg version="1.1" id="Warstwa_1" xmlns="http://www.w3.org/2000/svg" xmlns:xlink="http://www.w3.org/1999/xlink" x="0px" y="0px"
	 viewBox="0 0 612.78 343.89" style="enable-background:new 0 0 612.78 343.89;" xml:space="preserve">
<style type="text/css">
	.st0{fill:none;}
	.st1{fill:#2D2825;}
	.st2{fill:#FFDA02;}
	.st3{fill:#FFFFFF;}
</style>
<g>
	<path class="st0" d="M231.83,176.55h0.02l4.17-34.5L231.83,176.55z"/>
	<path class="st1" d="M300.95,160.46c-0.12-0.03-0.24-0.07-0.39-0.1v-0.03L300.95,160.46z"/>
	<g>
		<path class="st2" d="M311.51,98.94c-0.07,0-0.15,0-0.22,0.02l104.47-0.75L311.51,98.94z M300.95,160.46l40.07,14.15l0.02-0.02
			L300.95,160.46z M300.56,160.33h-0.02v0.03c0.02,0,0.02,0,0.02,0c0.15,0.03,0.27,0.07,0.39,0.1L300.56,160.33z M308.43,90.55
			l104.24-0.73c0.12,0,0.24,0,0.34-0.02L308.43,90.55z"/>
		<path class="st2" d="M296.63,95.52l-49.27-32.03c-0.34-0.22-0.68-0.2-1.01,0.03c0,0-0.02,0-0.03,0.02
			c-0.5,0.36-0.92,1.25-1.11,2.48l-6.76,55.93l-2.44,20.09l-4.17,34.5l7.99-2l50.6-12.6l7.43-61.44
			C298.14,98.37,297.57,96.14,296.63,95.52z M252.57,163.28c-0.43,3.47-1.57,6.4-3.19,7.6c-2.59,1.95-5.41-1.3-6.28-7.2
			c-0.34-2.24-0.36-4.51-0.1-6.61c0.43-3.47,1.57-6.4,3.19-7.6c2.6-1.95,5.41,1.3,6.3,7.2C252.81,158.91,252.83,161.2,252.57,163.28
			z M256.6,111.26c-2.6,1.95-5.41-1.28-6.3-7.2c-0.32-2.22-0.34-4.51-0.09-6.61c0.41-3.47,1.57-6.39,3.18-7.6
			c2.59-1.93,5.43,1.3,6.3,7.22c0.34,2.22,0.34,4.51,0.1,6.59C259.37,107.13,258.22,110.07,256.6,111.26z M269.57,142.18
			c-0.41,3.47-1.57,6.4-3.18,7.61c-2.61,1.93-5.43-1.31-6.3-7.22c-0.34-2.22-0.36-4.51-0.1-6.61c0.43-3.47,1.57-6.39,3.19-7.6
			c2.59-1.93,5.41,1.3,6.3,7.22C269.81,137.81,269.83,140.1,269.57,142.18z M286.73,121.18c-0.43,3.47-1.57,6.4-3.19,7.6
			c-2.6,1.95-5.41-1.28-6.3-7.2c-0.34-2.22-0.34-4.51-0.09-6.59c0.41-3.47,1.57-6.4,3.19-7.6c2.58-1.95,5.41,1.28,6.28,7.2
			C286.97,116.81,286.97,119.1,286.73,121.18z"/>
		<path class="st2" d="M413.02,89.8c-0.1,0.02-0.22,0.02-0.34,0.02l-104.24,0.73L413.02,89.8z"/>
		<path class="st2" d="M414.54,88.71l-49.34-32.1c-0.92-0.6-3.26-1.08-5.21-1.06l-104.24,0.73c-1.09,0-1.83,0.15-2.1,0.41
			c-0.05,0.03-0.09,0.07-0.1,0.1c-0.07,0.14-0.03,0.29,0.15,0.46l0.02,0.02l24.86,16.17l24.67,16.03c0.89,0.58,3.06,1.04,4.93,1.08
			h0.26l104.59-0.75h0.15c1.06-0.07,1.67-0.27,1.72-0.58C414.95,89.07,414.83,88.9,414.54,88.71z M343.86,75.58
			c-1.18,0.38-2.89,0.56-4.85,0.58c-3.23,0.02-7.15-0.43-10.48-1.31c-5.33-1.4-7.1-3.35-3.94-4.34c0.51-0.15,1.11-0.29,1.79-0.38
			c0.02,0,0.02-0.02,0.03,0c0.89-0.14,1.91-0.19,3-0.2c3.24-0.02,7.15,0.44,10.48,1.31c3.43,0.9,5.39,2.03,5.51,2.99
			C345.46,74.76,344.97,75.22,343.86,75.58z"/>
		<path class="st2" d="M415.75,98.2l-104.47,0.75c0.07-0.02,0.15-0.02,0.22-0.02L415.75,98.2z"/>
		<path class="st2" d="M418.45,99.84c-0.48-0.97-1.42-1.62-2.6-1.64h-0.1l-104.47,0.75h-0.14c-1.81,0.22-3.4,1.84-3.62,3.77
			l-6.97,57.6l0.39,0.14l40.07,14.15l18.68,7.24c0.32,0.12,7.31,11.32,7.41,12.1l3.26,23.61l31.19-0.22h0.14
			c1.76-0.2,3.33-1.79,3.6-3.7l13.52-111.69C418.93,101.17,418.79,100.44,418.45,99.84z M336.82,136.96
			c-1.88,1.28-3.93,1.9-5.89,1.91c-3.23,0.02-6.21-1.62-7.8-4.69c-2.53-4.93-0.51-11.66,4.52-15.04c1.88-1.28,3.94-1.9,5.89-1.91
			c3.24-0.03,6.21,1.62,7.8,4.69C343.87,126.85,341.86,133.58,336.82,136.96z M361.02,167.07c-1.9,1.28-3.94,1.9-5.89,1.91
			c-2.22,0.02-4.34-0.75-5.94-2.24c-0.73-0.68-1.37-1.5-1.86-2.48c-2.54-4.92-0.53-11.66,4.51-15.04c1.9-1.28,3.94-1.9,5.89-1.91
			c2.99-0.02,5.75,1.38,7.41,4.01c0.14,0.22,0.27,0.44,0.39,0.68C368.07,156.95,366.03,163.69,361.02,167.07z M385.16,197.51
			c-1.9,1.26-3.94,1.88-5.89,1.9c-3.24,0.02-6.23-1.62-7.8-4.69c-2.54-4.93-0.53-11.68,4.51-15.06c1.9-1.28,3.93-1.9,5.89-1.91
			c3.24-0.02,6.21,1.62,7.8,4.71C392.21,187.37,390.18,194.11,385.16,197.51z"/>
	</g>
	<path class="st0" d="M300.95,160.46c-0.12-0.03-0.24-0.07-0.39-0.1c0,0,0,0-0.02,0v-0.03h0.02L300.95,160.46z"/>
	<g>
		<path class="st3" d="M77.73,80.7c9.1-3.16,12.67-5.34,17.41-10.48c7.12-7.51,10.67-17.41,10.67-29.28s-3.76-22.74-10.09-29.47
			C88.21,3.55,77.13,0,59.14,0H16.22L0,131.94h33.43l6.33-52.43l30.06,52.43h38.75L77.73,80.7z M48.06,60.33h-5.92l4.15-33.84h6.33
			c14.03,0,18.78,3.96,18.78,15.43C71.4,54.39,64.09,60.33,48.06,60.33z"/>
		<path class="st3" d="M207.5,29.07L211.05,0h-72.2l-16.22,131.94h73.79l3.55-29.07h-40.34l2.77-22.95h37.58l3.57-28.89h-37.59
			l2.78-21.96H207.5z"/>
	</g>
	<path class="st2" d="M123.49,263.22c9.1-3.16,12.67-5.34,17.41-10.48c7.12-7.51,10.69-17.41,10.69-29.28
		c0-11.87-3.77-22.74-10.09-29.47c-7.53-7.92-18.59-11.47-36.6-11.47H61.97L45.75,314.46h33.43l6.33-52.43l30.06,52.43h38.77
		L123.49,263.22z M93.81,242.86h-5.92l4.15-33.84h6.33c14.05,0,18.8,3.96,18.8,15.43C117.17,236.92,109.84,242.86,93.81,242.86z"/>
	<path class="st2" d="M570.65,285.38l12.67-102.86h-33.43l-16.22,131.94h75.36l3.76-29.07H570.65z"/>
	<path class="st2" d="M472.17,285.38l12.65-102.86H451.4l-16.22,131.94h75.38l3.76-29.07H472.17z"/>
	<path class="st0" d="M300.95,160.46c-0.12-0.03-0.24-0.07-0.39-0.1c0,0,0,0-0.02,0v-0.03h0.02L300.95,160.46z"/>
	<g>
		<path class="st3" d="M255.47,340.63l-1.02-8.69L242.4,229.06c-0.26-1.96-1.2-3.82-2.17-4.35l-55.78-19.7
			c-0.31-0.05-0.58,0.07-0.8,0.31c-0.02,0-0.02,0.02-0.03,0.05c-0.43,0.51-0.61,1.55-0.46,2.89l13.08,111.59
			c0.27,2.08,1.31,4.05,2.37,4.42l27.71,9.8l27.78,9.8c0.12,0.03,0.24,0.05,0.34,0.02C255.23,343.79,255.69,342.47,255.47,340.63z
			 M197,243.81c-0.84-2.1-1.38-4.32-1.64-6.4c-0.41-3.47,0.02-6.59,1.31-8.13c2.07-2.51,5.57-0.02,7.82,5.53
			c0.84,2.07,1.38,4.29,1.64,6.39c0.41,3.47-0.02,6.59-1.31,8.13C202.75,251.84,199.25,249.34,197,243.81z M211.82,308.98
			c-2.08,2.49-5.57,0.02-7.82-5.53c-0.85-2.08-1.4-4.3-1.64-6.39c-0.41-3.48,0.02-6.59,1.31-8.14c2.07-2.49,5.57-0.02,7.8,5.53
			c0.85,2.08,1.4,4.3,1.64,6.4C213.53,304.32,213.1,307.42,211.82,308.98z M223.39,284.48c-2.08,2.49-5.58,0-7.82-5.53
			c-0.85-2.08-1.4-4.3-1.64-6.4c-0.41-3.47,0.02-6.59,1.3-8.13c2.08-2.49,5.57-0.02,7.82,5.53c0.85,2.08,1.4,4.3,1.64,6.39
			C225.1,279.8,224.67,282.93,223.39,284.48z M227.3,254.5c-0.85-2.08-1.4-4.29-1.64-6.39c-0.41-3.47,0.02-6.59,1.31-8.13
			c2.07-2.51,5.57-0.02,7.82,5.51c0.84,2.08,1.38,4.3,1.64,6.4c0.41,3.47-0.02,6.59-1.31,8.13
			C233.06,262.52,229.56,260.05,227.3,254.5z M242.11,319.67c-2.07,2.51-5.57,0.02-7.82-5.51c-0.84-2.08-1.38-4.3-1.62-6.39
			c-0.41-3.48,0.02-6.59,1.31-8.14c2.05-2.51,5.57-0.02,7.8,5.53c0.85,2.08,1.4,4.3,1.64,6.4
			C243.83,315.02,243.4,318.13,242.11,319.67z"/>
		<path class="st3" d="M353.04,190.31l-15.43-5.45l-40.07-14.15c-0.12-0.03-0.24-0.07-0.39-0.1c0,0,0,0-0.02,0
			c-1.14-0.24-3.18-0.14-4.85,0.27l-5.26,1.31l-50.6,12.6l-7.99,2h-0.02l-37.8,9.42c-0.79,0.24-1.31,0.51-1.49,0.77
			c-0.03,0.03-0.05,0.07-0.05,0.1l-0.02,0.02c-0.05,0.19,0.07,0.36,0.39,0.48l55.71,19.67c0.99,0.29,3.06,0.24,4.8-0.15l12.16-3.02
			l14.75-3.67l5.7-1.42l10.23-2.54v-0.02h0.02l30.27-7.53v-0.02h0.02l22.38-5.57l6.47-1.62c1.01-0.31,1.57-0.67,1.57-0.97
			C353.52,190.56,353.37,190.43,353.04,190.31z M281.25,194.15c-1.06,0.65-2.68,1.23-4.58,1.71c-0.63,0.15-1.3,0.31-1.98,0.43
			c-2,0.39-4.18,0.65-6.28,0.73c-0.77,0.03-1.5,0.05-2.24,0.03c-5.5-0.12-7.68-1.59-4.87-3.29c0.46-0.27,1.01-0.55,1.66-0.8h0.02
			c0.84-0.32,1.83-0.63,2.9-0.9c0.26-0.07,0.51-0.12,0.79-0.19c2.9-0.65,6.35-1.02,9.44-0.99h0.27c3.57,0.07,5.74,0.7,6.04,1.6
			C282.62,192.97,282.24,193.55,281.25,194.15z"/>
		<path class="st3" d="M373.41,313.83l-0.58-4.92v-0.02l-9.51-81.04l-3-25.69c-0.1-0.79-0.39-1.45-0.87-1.96
			c-0.7-0.84-1.83-1.23-2.99-0.94l-45.46,11.32h-0.02v0.02h-0.02l-19.24,4.78v0.02l-10.23,2.54h-0.02l-3.28,0.82l-6.42,1.59v0.02
			l-16.53,4.11c-1.86,0.48-3.19,2.54-2.94,4.61l13.09,111.65c0.2,1.74,1.42,2.92,2.92,3c0.17,0.03,0.36,0.02,0.56,0l0.1-0.02
			l101.58-25.3C372.39,317.87,373.65,315.86,373.41,313.83z M288.83,255.47c-1.54,1.67-3.38,2.77-5.28,3.23
			c-3.14,0.79-6.42-0.1-8.69-2.71c-3.62-4.2-3.23-11.23,0.85-15.71c1.54-1.67,3.4-2.77,5.29-3.24c3.14-0.77,6.42,0.12,8.67,2.75
			C293.31,243.97,292.93,250.98,288.83,255.47z M319.41,279.05c-1.54,1.69-3.38,2.77-5.28,3.24c-2.15,0.55-4.39,0.27-6.3-0.8
			c-0.87-0.48-1.67-1.13-2.39-1.95c-3.62-4.18-3.24-11.22,0.85-15.69c1.54-1.67,3.38-2.77,5.28-3.23c2.9-0.73,5.94,0,8.14,2.17
			c0.2,0.17,0.38,0.36,0.55,0.56C323.88,267.54,323.51,274.58,319.41,279.05z M350.04,302.97c-1.55,1.67-3.4,2.75-5.29,3.23
			c-3.14,0.79-6.42-0.12-8.69-2.73c-3.62-4.18-3.24-11.22,0.85-15.69c1.54-1.69,3.38-2.77,5.28-3.24c3.14-0.79,6.44,0.12,8.69,2.73
			C354.51,291.46,354.12,298.5,350.04,302.97z"/>
	</g>
</g>
</svg>
