<?xml version="1.0" encoding="utf-8"?>
<!-- Generator: Adobe Illustrator 24.0.2, SVG Export Plug-In . SVG Version: 6.00 Build 0)  -->
<svg version="1.1" id="Warstwa_1" xmlns="http://www.w3.org/2000/svg" xmlns:xlink="http://www.w3.org/1999/xlink" x="0px" y="0px"
	 viewBox="0 0 416.1 62.4" style="enable-background:new 0 0 416.1 62.4;" xml:space="preserve">
<style type="text/css">
	.st0{fill:#0B0C0C;}
	.st1{fill:#010202;}
	.st2{fill:#242625;}
	.st3{fill:#292B2A;}
	.st4{fill:#787878;}
</style>
<g id="Group_212" transform="translate(0 -21)">
	<g id="Group_61" transform="translate(18953.715 1664.438)">
		
			<rect id="Rectangle_27" x="-18921.85" y="-1615.57" transform="matrix(0.1581 -0.9874 0.9874 0.1581 -14323.1064 -20024.1309)" class="st0" width="36.04" height="5.34"/>
		<path id="Path_55" class="st0" d="M-18893.18-1611.21c-1.57,9.83-6.43,17.23-10.86,16.53c-4.43-0.7-7.34-9.34-5.77-19.17
			c1.57-9.83,7.03-17.13,11.46-16.42C-18893.93-1629.58-18891.61-1621.04-18893.18-1611.21z"/>
		<g id="Group_60" transform="translate(3.773 1.753)">
			<path id="Path_56" class="st1" d="M-18913.96-1608.39l15.2,2.43c0.11-0.3,0.22-0.6,0.32-0.91l-15.57-2.49
				C-18913.99-1609.04-18913.97-1608.71-18913.96-1608.39z"/>
			<path id="Path_57" class="st1" d="M-18898.33-1628.69c-0.18-0.37-0.39-0.72-0.62-1.06l-7.04-1.13c-0.34,0.25-0.67,0.52-0.97,0.81
				L-18898.33-1628.69z"/>
			<path id="Path_58" class="st1" d="M-18896.63-1622.2c-0.03-0.33-0.07-0.66-0.12-0.98l-13.67-2.18c-0.15,0.29-0.3,0.59-0.45,0.89
				L-18896.63-1622.2z"/>
			<path id="Path_59" class="st1" d="M-18896.48-1618c0.03-1.04,0.01-2.05-0.05-3.02l-14.84-2.37c-0.39,0.9-0.75,1.85-1.06,2.85
				L-18896.48-1618z"/>
			<path id="Path_60" class="st1" d="M-18914.01-1610.23l15.84,2.53c0.18-0.6,0.36-1.21,0.51-1.84l-16.3-2.6
				C-18914-1611.5-18914.02-1610.85-18914.01-1610.23z"/>
			<path id="Path_61" class="st1" d="M-18901.57-1600.38l-11.23-1.8c0.23,0.7,0.52,1.38,0.85,2.04l9.03,1.44
				C-18902.43-1599.22-18901.98-1599.79-18901.57-1600.38z"/>
		</g>
		
			<ellipse id="Ellipse_2" transform="matrix(0.1577 -0.9875 0.9875 0.1577 -14331.5898 -20028.7656)" class="st2" cx="-18906.47" cy="-1613.34" rx="18.03" ry="8.11"/>
		<path id="Path_62" class="st3" d="M-18914.53-1603.37l15.23-23.19c-0.47-1.43-1.32-2.71-2.44-3.71l-13.21,20.11
			C-18915.06-1607.89-18914.92-1605.61-18914.53-1603.37z"/>
		<path id="Path_63" class="st3" d="M-18903.63-1631.13c-0.07-0.01-0.13-0.01-0.2-0.02l-10.58,16.1c-0.02,0.14-0.05,0.29-0.07,0.44
			c-0.12,0.76-0.22,1.52-0.29,2.25l12.13-18.47C-18902.96-1630.98-18903.29-1631.08-18903.63-1631.13z"/>
		<path id="Path_64" class="st0" d="M-18901.65-1612.56c-1.18,7.37-4.54,12.96-7.51,12.49s-4.43-6.84-3.25-14.21
			s4.54-12.96,7.51-12.49C-18901.92-1626.31-18900.47-1619.94-18901.65-1612.56z"/>
		
			<rect id="Rectangle_28" x="-18919.97" y="-1613.87" transform="matrix(0.1581 -0.9874 0.9874 0.1581 -14324.9199 -20027.082)" class="st0" width="27" height="1.12"/>
		<path id="Path_65" class="st4" d="M-18900.54-1612.39c-1.18,7.37-4.54,12.96-7.51,12.49s-4.43-6.84-3.25-14.21
			s4.54-12.96,7.51-12.49S-18899.36-1619.76-18900.54-1612.39z"/>
		<path id="Path_66" class="st0" d="M-18902.64-1612.72c-0.65,4.1-2.52,7.2-4.17,6.95s-2.46-3.8-1.8-7.89
			c0.66-4.09,2.52-7.2,4.17-6.95C-18902.79-1620.36-18901.98-1616.82-18902.64-1612.72z"/>
		
			<rect id="Rectangle_29" x="-18913.83" y="-1614.02" transform="matrix(0.1581 -0.9874 0.9874 0.1581 -14324.8037 -20026.9297)" class="st0" width="15.01" height="1.42"/>
		<path id="Path_67" class="st2" d="M-18904.04-1612.95c-0.65,4.1-2.52,7.2-4.17,6.95s-2.46-3.8-1.8-7.89
			c0.65-4.09,2.52-7.2,4.17-6.95S-18903.38-1617.04-18904.04-1612.95z"/>
		<path id="Path_68" class="st3" d="M-18905.84-1620.84c-1.65-0.26-3.52,2.84-4.17,6.95c-0.19,1.18-0.26,2.37-0.21,3.56l5.65-9.39
			C-18904.79-1620.28-18905.26-1620.69-18905.84-1620.84z"/>
	</g>
	<g id="Group_211">
		<path id="Path_69" class="st2" d="M23.65,69.1H10.38v-7.8h2.6V32.76h-4.9v2.6H0V24.97h34.07l-0.03,10.38h-8.07v-2.6h-4.9V61.3h2.6
			L23.65,69.1z"/>
		<path id="Path_70" class="st2" d="M84.7,69.1c-2.3,0.01-4.56-0.54-6.61-1.59c-1.76-0.84-3.31-2.08-4.53-3.61h-3.29v-7.79h8.1
			c1.27,3.46,3.38,5.19,6.32,5.19c1.63,0.11,3.26-0.17,4.76-0.81c1.1-0.62,1.72-1.83,1.59-3.09c0-0.52-0.77-1.04-2.31-1.56
			c-0.98-0.31-2.35-0.65-4.1-1.04c-3.7-0.62-7.27-1.86-10.56-3.66c-2.38-1.4-3.83-3.96-3.81-6.72c0.04-3.17,1.53-6.14,4.04-8.07
			c2.9-2.44,6.6-3.73,10.38-3.61c2.51-0.04,4.99,0.59,7.18,1.82c1.55,0.84,2.9,1.99,3.98,3.38h4.04l-3.89,7.79h-4.96
			c0.09-1.11-0.16-2.21-0.72-3.17c-1.45-1.52-3.54-2.27-5.63-2.02c-1.45-0.07-2.91,0.12-4.3,0.55c-1.36,0.52-2.2,1.9-2.05,3.35
			c0,0.52,0.77,1.04,2.31,1.56c0.94,0.29,3.28,0.87,7.01,1.76c2.69,0.55,5.28,1.55,7.64,2.94c2.38,1.4,3.83,3.96,3.81,6.72
			c0.16,3.51-1.48,6.86-4.36,8.88C91.79,68.29,88.27,69.27,84.7,69.1z"/>
		<path id="Path_71" class="st2" d="M123.18,69.1c-2.3,0.01-4.56-0.54-6.61-1.59c-1.76-0.84-3.31-2.08-4.53-3.61h-3.29v-7.79h8.1
			c1.27,3.46,3.38,5.19,6.32,5.19c1.63,0.11,3.26-0.17,4.76-0.81c1.1-0.62,1.72-1.83,1.59-3.09c0-0.52-0.77-1.04-2.31-1.56
			c-0.98-0.31-2.35-0.65-4.1-1.04c-3.7-0.62-7.27-1.86-10.56-3.66c-2.38-1.4-3.83-3.96-3.81-6.72c0.04-3.17,1.53-6.14,4.04-8.07
			c2.9-2.44,6.6-3.73,10.38-3.61c2.51-0.04,4.99,0.59,7.18,1.82c1.55,0.84,2.9,1.99,3.98,3.38h4.04l-3.89,7.79h-4.96
			c0.09-1.11-0.16-2.21-0.72-3.17c-1.45-1.52-3.54-2.27-5.63-2.02c-1.45-0.07-2.91,0.12-4.3,0.55c-1.36,0.52-2.2,1.9-2.05,3.35
			c0,0.52,0.77,1.04,2.31,1.56c0.94,0.29,3.28,0.87,7.01,1.76c2.69,0.55,5.28,1.55,7.64,2.94c2.38,1.4,3.83,3.96,3.81,6.72
			c0.16,3.51-1.48,6.86-4.36,8.88C130.27,68.29,126.75,69.27,123.18,69.1z"/>
		<g id="Group_209" transform="translate(19121.977 1860.278)">
			<path id="Path_117" class="st2" d="M-18918.13-1791.18h-10.67v-2.71c-1.88,1.81-5.29,2.71-10.24,2.71
				c-4.88,0.08-9.57-1.85-12.97-5.35c-3.48-3.35-5.41-7.99-5.35-12.82c-0.06-4.83,1.87-9.47,5.35-12.82
				c3.4-3.5,8.09-5.44,12.97-5.35c4.12-0.29,8.18,1.06,11.31,3.76l2.08-3.76h7.53v7.79h-2.59v20.77h2.59V-1791.18z
				 M-18939.04-1798.97c2.72,0.04,5.34-1.06,7.22-3.01c1.98-1.94,3.07-4.6,3.01-7.37c0.06-2.77-1.03-5.44-3.01-7.37
				c-1.89-1.96-4.5-3.05-7.22-3.02c-2.72-0.04-5.34,1.06-7.23,3.02c-1.98,1.94-3.07,4.6-3.01,7.37c-0.06,2.77,1.04,5.43,3.01,7.37
				C-18944.38-1800.03-18941.76-1798.93-18939.04-1798.97L-18939.04-1798.97z"/>
			<path id="Path_118" class="st2" d="M-18890.37-1776.9c-3.76,0.15-7.47-0.82-10.67-2.8c-1.98-1.19-3.57-2.92-4.59-4.99h-1.76
				v-7.79h8.08c0,5.19,2.98,7.79,8.94,7.79c3.79,0,6.41-1.09,7.85-3.26c0.68-0.94,1.06-2.07,1.1-3.23v-2.71
				c-1.88,1.81-5.29,2.71-10.24,2.71c-4.88,0.08-9.57-1.85-12.97-5.35c-3.48-3.35-5.41-7.99-5.35-12.82
				c-0.06-4.83,1.88-9.47,5.36-12.82c3.39-3.5,8.08-5.44,12.96-5.36c4.12-0.29,8.18,1.06,11.31,3.76l2.08-3.76h7.53v7.79h-2.6v28.56
				c-0.04,2.52-0.78,4.97-2.13,7.1C-18878.35-1779.29-18883.31-1776.9-18890.37-1776.9z M-18891.67-1798.96
				c2.72,0.04,5.34-1.06,7.22-3.01c1.98-1.94,3.07-4.6,3.02-7.37c0.05-2.77-1.04-5.44-3.02-7.37c-1.89-1.96-4.5-3.05-7.22-3.01
				c-2.72-0.04-5.34,1.06-7.23,3.02c-1.98,1.94-3.07,4.6-3.01,7.37c-0.05,2.77,1.04,5.43,3.01,7.37
				C-18897.01-1800.01-18894.39-1798.93-18891.67-1798.96z"/>
			<path id="Path_119" class="st2" d="M-18823.64-1791.18h-10.67v-2.71c-1.89,1.81-5.3,2.71-10.24,2.71
				c-4.88,0.08-9.57-1.85-12.97-5.35c-3.48-3.35-5.41-7.99-5.35-12.82c-0.06-4.83,1.87-9.47,5.35-12.82
				c3.4-3.5,8.09-5.44,12.97-5.35c4.12-0.29,8.18,1.06,11.31,3.76l2.08-3.76h7.53v7.79h-2.6v20.77h2.6V-1791.18z M-18844.56-1798.97
				c2.72,0.04,5.34-1.05,7.23-3.01c1.98-1.94,3.07-4.6,3.01-7.37c0.05-2.77-1.04-5.44-3.01-7.37c-1.89-1.96-4.51-3.05-7.23-3.02
				c-2.72-0.04-5.34,1.06-7.23,3.02c-1.98,1.94-3.07,4.6-3.01,7.37c-0.05,2.77,1.04,5.43,3.01,7.37
				C-18849.9-1800.03-18847.28-1798.93-18844.56-1798.97L-18844.56-1798.97z"/>
			<path id="Path_120" class="st2" d="M-18801.05-1791.18h-13.27v-7.79h2.6v-25.56l10.67-3.58v8.37h-2.6v20.77h2.6V-1791.18z
				 M-18806.87-1828.89c-1.44,0.03-2.82-0.54-3.81-1.59c-1-0.93-1.55-2.24-1.53-3.61c-0.03-1.36,0.53-2.68,1.53-3.61
				c0.99-1.04,2.37-1.62,3.81-1.59c1.44-0.03,2.82,0.54,3.81,1.59c1,0.93,1.56,2.25,1.53,3.61c0.03,1.36-0.53,2.68-1.53,3.61
				C-18804.05-1829.42-18805.44-1828.85-18806.87-1828.89L-18806.87-1828.89z"/>
			<path id="Path_121" class="st2" d="M-18749.15-1791.18h-13.27v-7.79h2.6v-10.38c0.05-2.77-1.04-5.43-3.02-7.36
				c-1.89-1.95-4.5-3.04-7.22-3c-2.72-0.04-5.33,1.05-7.22,3c-1.98,1.93-3.07,4.6-3.02,7.37v10.38h2.6v7.79h-13.27v-7.79h2.6v-20.76
				h-3.38l3.89-7.79h7.56v2.71c1.88-1.81,5.3-2.71,10.24-2.71c4.88-0.08,9.57,1.85,12.97,5.35c3.48,3.35,5.42,7.99,5.35,12.82v10.38
				h2.6L-18749.15-1791.18z"/>
			<path id="Path_122" class="st2" d="M-18716.29-1801.53h-4.41l-6.26-3.15v-9.26c1.6-0.89,2.88-1.57,3.87-2.05
				c2.1-1.06,3.65-1.91,4.67-2.57c2.96-1.87,4.44-3.55,4.44-5.05c0-1.56-0.98-2.66-2.94-3.32c-1.1-0.38-2.24-0.57-3.4-0.58
				c-1.88,0-3.74,0.32-5.51,0.95c-1.2,0.4-2.36,0.95-3.43,1.61v2.63h-4.96l-3.38-6.72c1.43-1.43,3.09-2.6,4.9-3.49
				c3.85-1.88,8.09-2.83,12.38-2.77c3.62-0.23,7.21,0.67,10.3,2.57c2.85,2.13,4.4,5.57,4.13,9.12c-0.15,3.78-2.14,7.24-5.34,9.26
				c-1.73,1.28-3.58,2.4-5.51,3.35c-1.29,0.69-2,1.06-2.13,1.1v0.58h2.6V-1801.53z M-18721.63-1787.86
				c-1.44,0.03-2.82-0.54-3.81-1.59c-1-0.93-1.55-2.24-1.53-3.61c-0.03-1.36,0.53-2.67,1.53-3.61c0.99-1.04,2.37-1.62,3.81-1.59
				c1.44-0.03,2.82,0.54,3.81,1.59c1,0.93,1.55,2.24,1.53,3.61c0.03,1.36-0.53,2.68-1.53,3.61
				C-18718.81-1788.4-18720.2-1787.82-18721.63-1787.86z"/>
		</g>
	</g>
</g>
</svg>
