<?xml version="1.0" encoding="utf-8"?>
<!-- Generator: Adobe Illustrator 24.0.2, SVG Export Plug-In . SVG Version: 6.00 Build 0)  -->
<svg version="1.1" id="Warstwa_1" xmlns="http://www.w3.org/2000/svg" xmlns:xlink="http://www.w3.org/1999/xlink" x="0px" y="0px"
	 viewBox="0 0 354.79 80.3" style="enable-background:new 0 0 354.79 80.3;" xml:space="preserve">
<style type="text/css">
	.st0{fill:#0B0C0C;}
	.st1{fill:#010202;}
	.st2{fill:#242625;}
	.st3{fill:#292B2A;}
	.st4{fill:#787878;}
</style>
<g>
	<g id="Group_61-2" transform="translate(921.714 792.438)">
		
			<rect id="Rectangle_27-2" x="-869.28" y="-746.59" transform="matrix(0.1581 -0.9874 0.9874 0.1581 25.9585 -1453.9468)" class="st0" width="59.31" height="8.79"/>
		<path id="Path_55-2" class="st0" d="M-822.09-739.41c-2.58,16.18-10.59,28.35-17.88,27.2s-12.08-15.38-9.49-31.56
			c2.58-16.18,11.56-28.19,18.85-27.03C-823.32-769.64-819.51-755.59-822.09-739.41z"/>
		<g id="Group_60-2" transform="translate(3.773 1.753)">
			<path id="Path_56-2" class="st1" d="M-853.85-733.64l25.01,4c0.18-0.49,0.36-0.99,0.53-1.5l-25.62-4.09
				C-853.91-734.7-853.87-734.17-853.85-733.64z"/>
			<path id="Path_57-2" class="st1" d="M-828.13-767.04c-0.3-0.6-0.64-1.19-1.02-1.75l-11.58-1.85c-0.56,0.41-1.09,0.85-1.6,1.33
				L-828.13-767.04z"/>
			<path id="Path_58-2" class="st1" d="M-825.33-756.37c-0.06-0.55-0.12-1.09-0.19-1.62l-22.5-3.59c-0.25,0.48-0.5,0.97-0.74,1.47
				L-825.33-756.37z"/>
			<path id="Path_59-2" class="st1" d="M-825.09-749.45c0.05-1.72,0.02-3.38-0.08-4.98l-24.41-3.9c-0.64,1.48-1.24,3.04-1.74,4.69
				L-825.09-749.45z"/>
			<path id="Path_60-2" class="st1" d="M-853.94-736.66l26.07,4.16c0.3-0.98,0.58-2,0.85-3.03l-26.83-4.29
				C-853.92-738.75-853.95-737.69-853.94-736.66z"/>
			<path id="Path_61-2" class="st1" d="M-833.46-720.45l-18.49-2.95c0.39,1.15,0.85,2.27,1.4,3.35l14.86,2.37
				C-834.88-718.55-834.13-719.48-833.46-720.45z"/>
		</g>
		
			<ellipse id="Ellipse_2-2" transform="matrix(0.1577 -0.9875 0.9875 0.1577 22.7416 -1459.1522)" class="st2" cx="-843.97" cy="-742.91" rx="29.67" ry="13.35"/>
		<path id="Path_62-2" class="st3" d="M-857.23-726.51l25.07-38.16c-0.78-2.35-2.17-4.46-4.02-6.1l-21.74,33.09
			C-858.1-733.94-857.87-730.19-857.23-726.51z"/>
		<path id="Path_63-2" class="st3" d="M-839.29-772.2c-0.11-0.02-0.22-0.02-0.33-0.03l-17.41,26.5c-0.04,0.24-0.08,0.48-0.12,0.72
			c-0.2,1.25-0.36,2.5-0.48,3.71l19.97-30.4C-838.18-771.95-838.73-772.11-839.29-772.2z"/>
		<path id="Path_64-2" class="st0" d="M-836.02-741.64c-1.94,12.13-7.47,21.32-12.36,20.55c-4.89-0.77-7.28-11.25-5.35-23.39
			c1.94-12.14,7.47-21.32,12.36-20.55C-836.48-764.25-834.09-753.77-836.02-741.64z"/>
		
			<rect id="Rectangle_28-2" x="-866.18" y="-743.79" transform="matrix(0.1581 -0.9874 0.9874 0.1581 22.9732 -1458.804)" class="st0" width="44.44" height="1.84"/>
		<path id="Path_65-2" class="st4" d="M-834.2-741.35c-1.94,12.13-7.47,21.32-12.36,20.56c-4.89-0.77-7.28-11.25-5.35-23.39
			c1.94-12.14,7.47-21.32,12.36-20.55C-834.66-763.96-832.27-753.48-834.2-741.35z"/>
		<path id="Path_66-2" class="st0" d="M-837.65-741.9c-1.08,6.74-4.15,11.86-6.87,11.43c-2.72-0.42-4.05-6.25-2.97-12.98
			c1.08-6.73,4.15-11.85,6.87-11.43S-836.57-748.64-837.65-741.9z"/>
		
			<rect id="Rectangle_29-2" x="-856.08" y="-744.03" transform="matrix(0.1581 -0.9874 0.9874 0.1581 23.1648 -1458.5537)" class="st0" width="24.71" height="2.34"/>
		<path id="Path_67-2" class="st2" d="M-839.96-742.27c-1.08,6.74-4.15,11.86-6.87,11.43c-2.72-0.42-4.05-6.25-2.97-12.98
			s4.15-11.86,6.87-11.43C-840.22-754.82-838.88-749.01-839.96-742.27z"/>
		<path id="Path_68-2" class="st3" d="M-842.93-755.26c-2.72-0.43-5.79,4.68-6.87,11.43c-0.32,1.93-0.43,3.9-0.34,5.85l9.3-15.45
			C-841.2-754.33-841.98-755.01-842.93-755.26z"/>
	</g>
	<path id="Path_69-2" class="st2" d="M38.92,79.15H17.09V66.32h4.27V19.34h-8.07v4.27H0V6.52h56.06l-0.05,17.09H42.73v-4.27h-8.07
		v46.98h4.27L38.92,79.15z"/>
	<path id="Path_70-2" class="st2" d="M139.4,79.15c-3.78,0.01-7.51-0.88-10.87-2.61c-2.9-1.39-5.45-3.42-7.45-5.93h-5.41V57.78H129
		c2.09,5.7,5.55,8.55,10.4,8.55c2.68,0.18,5.36-0.28,7.83-1.33c1.8-1.02,2.83-3.02,2.61-5.08c0-0.86-1.27-1.71-3.8-2.57
		c-1.62-0.5-3.86-1.07-6.74-1.71c-6.09-1.03-11.96-3.06-17.37-6.03c-3.91-2.31-6.3-6.52-6.27-11.06c0.07-5.21,2.52-10.11,6.64-13.29
		c4.77-4.02,10.86-6.13,17.09-5.93c4.13-0.06,8.21,0.97,11.82,2.99c2.55,1.38,4.78,3.27,6.55,5.56h6.65l-6.41,12.82h-8.17
		c0.15-1.82-0.27-3.64-1.19-5.22c-2.39-2.51-5.83-3.74-9.27-3.32c-2.39-0.11-4.79,0.19-7.07,0.9c-2.24,0.86-3.62,3.12-3.37,5.51
		c0,0.85,1.27,1.71,3.8,2.57c1.55,0.47,5.39,1.44,11.54,2.9c4.43,0.91,8.68,2.55,12.58,4.84c3.91,2.31,6.3,6.52,6.27,11.06
		c0.27,5.78-2.43,11.3-7.17,14.62C151.07,77.81,145.27,79.42,139.4,79.15z"/>
	<path id="Path_71-2" class="st2" d="M202.73,79.15c-3.78,0.01-7.51-0.88-10.87-2.61c-2.9-1.39-5.45-3.42-7.45-5.93h-5.41V57.78
		h13.34c2.09,5.7,5.55,8.55,10.4,8.55c2.68,0.18,5.36-0.28,7.83-1.33c1.8-1.02,2.83-3.02,2.61-5.08c0-0.86-1.27-1.71-3.8-2.57
		c-1.62-0.5-3.86-1.07-6.74-1.71c-6.09-1.03-11.96-3.06-17.37-6.03c-3.91-2.31-6.3-6.52-6.27-11.06c0.07-5.21,2.52-10.11,6.65-13.29
		c4.77-4.02,10.86-6.13,17.09-5.93c4.13-0.06,8.21,0.97,11.82,2.99c2.55,1.38,4.78,3.27,6.55,5.56h6.64l-6.41,12.82h-8.17
		c0.15-1.82-0.27-3.64-1.19-5.22c-2.39-2.51-5.83-3.74-9.27-3.32c-2.39-0.11-4.79,0.19-7.07,0.9c-2.24,0.86-3.62,3.12-3.37,5.51
		c0,0.85,1.27,1.71,3.8,2.57c1.55,0.47,5.39,1.44,11.54,2.9c4.43,0.91,8.68,2.55,12.58,4.84c3.91,2.31,6.3,6.52,6.27,11.06
		c0.27,5.78-2.43,11.3-7.17,14.62C214.4,77.81,208.6,79.42,202.73,79.15z"/>
	<path id="Path_72-2" class="st2" d="M292.69,79.14h-21.84V66.32h4.27V24.26l17.57-5.87v13.76h-4.27v34.18h4.27L292.69,79.14z
		 M283.11,17.09c-2.36,0.06-4.64-0.89-6.27-2.61c-1.64-1.53-2.56-3.69-2.52-5.93c-0.04-2.25,0.87-4.4,2.52-5.93
		c1.62-1.72,3.9-2.67,6.27-2.61c2.36-0.06,4.64,0.89,6.27,2.61c1.64,1.53,2.56,3.69,2.52,5.93c0.04,2.25-0.87,4.4-2.52,5.93
		C287.75,16.21,285.47,17.16,283.11,17.09L283.11,17.09z"/>
	<path id="Path_73-2" class="st2" d="M335.32,79.15c-9.91,0-16.87-3.99-20.89-11.96c-1.84-3.57-2.82-7.52-2.85-11.54V36.42h-4.26
		V23.6h4.27V11.69l13.29-6.65V23.6h25.64v12.82h-25.64v19.23c0.02,1.94,0.51,3.85,1.42,5.56c1.65,3.41,5.24,5.45,9.01,5.11
		c2.07,0.07,4.14-0.08,6.18-0.43v-3.84h13.29v11.58c-2.63,2.15-5.74,3.64-9.07,4.33C342.32,78.76,338.82,79.16,335.32,79.15z"/>
</g>
</svg>
