<?xml version="1.0" encoding="utf-8"?>
<!-- Generator: Adobe Illustrator 24.0.2, SVG Export Plug-In . SVG Version: 6.00 Build 0)  -->
<svg version="1.1" id="Warstwa_1" xmlns="http://www.w3.org/2000/svg" xmlns:xlink="http://www.w3.org/1999/xlink" x="0px" y="0px"
	 viewBox="0 0 351.94 79.65" style="enable-background:new 0 0 351.94 79.65;" xml:space="preserve">
<style type="text/css">
	.st0{fill:#F4B401;}
	.st1{fill:#EA9C02;}
	.st2{fill:#FFDA02;}
	.st3{fill:#FEEF6F;}
	.st4{fill:#FFFFFF;}
</style>
<g id="Group_78" transform="translate(66.336 25.133)">
	<g id="Group_61" transform="translate(19.378 5.865)">
		
			<rect id="Rectangle_27" x="-33.7" y="14.48" transform="matrix(0.1581 -0.9874 0.9874 0.1581 -22.2107 11.6331)" class="st0" width="58.83" height="8.71"/>
		<path id="Path_55" class="st0" d="M13.11,21.6C10.54,37.65,2.6,49.72-4.62,48.58s-11.98-15.25-9.42-31.3S-2.57-10.69,4.66-9.54
			S15.67,5.55,13.11,21.6z"/>
		<g id="Group_60" transform="translate(3.773 1.753)">
			<path id="Path_56" class="st1" d="M-18.42,27.31l24.81,3.96c0.18-0.49,0.36-0.98,0.52-1.49l-25.41-4.06
				C-18.48,26.26-18.44,26.79-18.42,27.31z"/>
			<path id="Path_57" class="st1" d="M7.09-5.82C6.79-6.42,6.45-7,6.08-7.56L-5.41-9.39c-0.56,0.41-1.09,0.85-1.59,1.32L7.09-5.82z"
				/>
			<path id="Path_58" class="st1" d="M9.87,4.77c-0.06-0.54-0.12-1.08-0.19-1.6L-12.64-0.4c-0.25,0.47-0.5,0.96-0.74,1.46L9.87,4.77
				z"/>
			<path id="Path_59" class="st1" d="M10.11,11.63c0.05-1.7,0.02-3.35-0.08-4.94l-24.22-3.87c-0.63,1.47-1.23,3.02-1.73,4.65
				L10.11,11.63z"/>
			<path id="Path_60" class="st1" d="M-18.52,24.32l25.86,4.13c0.3-0.98,0.58-1.98,0.84-3.01l-26.62-4.25
				C-18.49,22.25-18.52,23.29-18.52,24.32z"/>
			<path id="Path_61" class="st1" d="M1.8,40.39l-18.34-2.93c0.38,1.14,0.85,2.25,1.39,3.33l14.74,2.35
				C0.39,42.28,1.13,41.36,1.8,40.39z"/>
		</g>
		
			<ellipse id="Ellipse_2" transform="matrix(0.1577 -0.9875 0.9875 0.1577 -25.1479 6.7878)" class="st2" cx="-8.59" cy="18.14" rx="29.43" ry="13.24"/>
		<path id="Path_62" class="st3" d="M-21.75,34.4L3.12-3.45C2.34-5.78,0.97-7.87-0.87-9.5l-21.56,32.82
			C-22.61,27.03-22.39,30.75-21.75,34.4z"/>
		<path id="Path_63" class="st3" d="M-3.95-10.92c-0.11-0.02-0.21-0.02-0.33-0.03l-17.27,26.29c-0.04,0.24-0.08,0.47-0.12,0.71
			c-0.2,1.24-0.36,2.48-0.48,3.68l19.81-30.16C-2.85-10.67-3.4-10.83-3.95-10.92z"/>
		<path id="Path_64" class="st1" d="M-0.71,19.39c-1.92,12.04-7.41,21.15-12.26,20.39c-4.85-0.76-7.23-11.16-5.3-23.2
			S-10.87-4.57-6.02-3.8S1.21,7.36-0.71,19.39z"/>
		
			<rect id="Rectangle_28" x="-30.63" y="17.26" transform="matrix(0.1581 -0.9874 0.9874 0.1581 -25.172 6.815)" class="st1" width="44.08" height="1.83"/>
		<path id="Path_65" class="st0" d="M1.09,19.68c-1.92,12.04-7.41,21.15-12.26,20.39s-7.23-11.16-5.3-23.2S-9.06-4.28-4.21-3.51
			S3.02,7.65,1.09,19.68z"/>
		<path id="Path_66" class="st1" d="M-2.33,19.14C-3.4,25.82-6.45,30.9-9.14,30.48c-2.69-0.42-4.02-6.2-2.95-12.88
			S-7.97,5.85-5.27,6.26C-2.58,6.67-1.26,12.45-2.33,19.14z"/>
		
			<rect id="Rectangle_29" x="-20.6" y="17.02" transform="matrix(0.1581 -0.9874 0.9874 0.1581 -24.982 7.0632)" class="st1" width="24.51" height="2.32"/>
		<path id="Path_67" class="st2" d="M-4.62,18.77c-1.07,6.69-4.12,11.76-6.82,11.34c-2.69-0.42-4.01-6.2-2.95-12.88
			S-10.26,5.48-7.56,5.9C-4.87,6.31-3.55,12.09-4.62,18.77z"/>
		<path id="Path_68" class="st3" d="M-7.56,5.88c-2.69-0.43-5.75,4.64-6.82,11.34c-0.31,1.92-0.43,3.86-0.33,5.81l9.22-15.33
			C-5.85,6.8-6.62,6.13-7.56,5.88z"/>
	</g>
	<path id="Path_69" class="st4" d="M-27.72,53.37h-21.66V40.65h4.24v-46.6h-8.01v4.24h-13.18v-16.95h55.61l-0.05,16.95h-13.18v-4.24
		h-8.01v46.6h4.24L-27.72,53.37z"/>
	<path id="Path_70" class="st4" d="M71.94,53.38c-3.75,0.01-7.45-0.88-10.79-2.59c-2.88-1.38-5.41-3.39-7.39-5.89H48.4V32.18h13.23
		c2.07,5.65,5.51,8.48,10.31,8.48c2.66,0.17,5.32-0.28,7.77-1.32c1.79-1.02,2.81-2.99,2.59-5.04c0-0.85-1.26-1.7-3.77-2.54
		c-1.6-0.5-3.83-1.07-6.69-1.7c-6.04-1.02-11.86-3.04-17.24-5.98c-3.88-2.29-6.25-6.47-6.22-10.97c0.07-5.17,2.5-10.02,6.59-13.18
		c4.73-3.99,10.77-6.09,16.95-5.89c4.1-0.06,8.15,0.97,11.73,2.97c2.53,1.37,4.74,3.25,6.5,5.52h6.59L90.4,15.24h-8.1
		c0.14-1.81-0.27-3.61-1.18-5.18c-2.37-2.49-5.78-3.71-9.2-3.3c-2.37-0.11-4.75,0.19-7.02,0.9c-2.22,0.86-3.59,3.1-3.34,5.46
		c0,0.85,1.26,1.7,3.77,2.54c1.54,0.47,5.35,1.43,11.44,2.87c4.4,0.9,8.61,2.53,12.48,4.8c3.88,2.29,6.25,6.47,6.22,10.97
		c0.27,5.73-2.41,11.21-7.11,14.5C83.52,52.06,77.76,53.65,71.94,53.38z"/>
	<path id="Path_71" class="st4" d="M134.77,53.38c-3.75,0.01-7.45-0.88-10.79-2.59c-2.88-1.38-5.41-3.39-7.39-5.89h-5.37V32.18
		h13.23c2.07,5.65,5.51,8.48,10.31,8.48c2.66,0.17,5.32-0.28,7.77-1.32c1.79-1.02,2.81-2.99,2.59-5.04c0-0.85-1.26-1.7-3.77-2.54
		c-1.6-0.5-3.83-1.07-6.69-1.7c-6.04-1.02-11.86-3.04-17.24-5.98c-3.88-2.29-6.25-6.47-6.22-10.97c0.07-5.17,2.5-10.03,6.59-13.18
		c4.73-3.99,10.77-6.09,16.95-5.89c4.1-0.06,8.15,0.96,11.73,2.97c2.53,1.37,4.74,3.25,6.5,5.52h6.59l-6.36,12.71h-8.1
		c0.14-1.81-0.27-3.61-1.18-5.18c-2.37-2.49-5.78-3.71-9.2-3.3c-2.37-0.11-4.75,0.19-7.02,0.9c-2.22,0.86-3.59,3.1-3.34,5.46
		c0,0.85,1.26,1.7,3.77,2.54c1.54,0.47,5.35,1.43,11.44,2.87c4.4,0.9,8.61,2.53,12.48,4.8c3.88,2.29,6.25,6.47,6.22,10.97
		c0.27,5.73-2.41,11.21-7.11,14.5C146.34,52.05,140.59,53.65,134.77,53.38z"/>
	<path id="Path_72" class="st4" d="M224,53.37h-21.66V40.66h4.24V-1.07L224-6.89V6.76h-4.24v33.91H224L224,53.37z M214.5-8.18
		c-2.35,0.06-4.61-0.88-6.22-2.59c-1.63-1.52-2.54-3.66-2.5-5.89c-0.04-2.23,0.87-4.37,2.5-5.89c1.61-1.71,3.87-2.65,6.22-2.59
		c2.35-0.06,4.61,0.88,6.22,2.59c1.63,1.52,2.54,3.66,2.5,5.89c0.04,2.23-0.87,4.37-2.5,5.89C219.1-9.06,216.84-8.11,214.5-8.18
		L214.5-8.18z"/>
	<path id="Path_73" class="st4" d="M266.29,53.38c-9.83,0-16.73-3.96-20.72-11.87c-1.83-3.54-2.8-7.46-2.83-11.44V11h-4.23V-1.72
		h4.24v-11.82l13.18-6.59v18.41h25.43V11h-25.43v19.07c0.02,1.93,0.51,3.82,1.41,5.52c1.63,3.38,5.2,5.4,8.94,5.07
		c2.05,0.06,4.11-0.08,6.13-0.42v-3.81h13.18v11.49c-2.61,2.13-5.69,3.61-8.99,4.29C273.23,52.99,269.76,53.39,266.29,53.38z"/>
</g>
</svg>
