<?xml version="1.0" encoding="utf-8"?>
<!-- Generator: Adobe Illustrator 24.0.2, SVG Export Plug-In . SVG Version: 6.00 Build 0)  -->
<svg version="1.1" id="Warstwa_1" xmlns="http://www.w3.org/2000/svg" xmlns:xlink="http://www.w3.org/1999/xlink" x="0px" y="0px"
	 viewBox="0 0 421.8 63.25" style="enable-background:new 0 0 421.8 63.25;" xml:space="preserve">
<style type="text/css">
	.st0{fill:#F4B401;}
	.st1{fill:#EA9C02;}
	.st2{fill:#FFDA02;}
	.st3{fill:#FEEF6F;}
	.st4{fill:#FFFFFF;}
</style>
<g>
	<g id="Group_61" transform="translate(19.379 5.865)">
		
			<rect id="Rectangle_27" x="12.92" y="22.38" transform="matrix(0.1581 -0.9874 0.9874 0.1581 1.4843 51.9168)" class="st0" width="36.53" height="5.41"/>
		<path id="Path_55" class="st0" d="M41.99,26.8c-1.59,9.97-6.52,17.46-11.01,16.75c-4.49-0.71-7.44-9.47-5.85-19.44
			S32.25,6.75,36.74,7.47C41.23,8.19,43.58,16.84,41.99,26.8z"/>
		<g id="Group_60" transform="translate(3.773 1.753)">
			<path id="Path_56" class="st1" d="M20.98,29.68l15.41,2.46c0.11-0.3,0.22-0.61,0.33-0.93L20.93,28.7
				C20.94,29.03,20.97,29.36,20.98,29.68z"/>
			<path id="Path_57" class="st1" d="M36.82,9.11c-0.19-0.37-0.39-0.73-0.63-1.08l-7.13-1.14c-0.34,0.25-0.67,0.53-0.99,0.82
				L36.82,9.11z"/>
			<path id="Path_58" class="st1" d="M38.55,15.68c-0.03-0.34-0.07-0.67-0.12-1l-13.86-2.21c-0.16,0.29-0.31,0.6-0.46,0.9
				L38.55,15.68z"/>
			<path id="Path_59" class="st1" d="M38.69,19.95c0.03-1.06,0.01-2.08-0.05-3.06l-15.04-2.4c-0.39,0.91-0.76,1.88-1.07,2.89
				L38.69,19.95z"/>
			<path id="Path_60" class="st1" d="M20.92,27.82l16.06,2.56c0.19-0.61,0.36-1.23,0.52-1.87l-16.53-2.64
				C20.94,26.54,20.92,27.19,20.92,27.82z"/>
			<path id="Path_61" class="st1" d="M33.53,37.81l-11.39-1.82c0.24,0.71,0.53,1.4,0.86,2.07l9.15,1.46
				C32.66,38.98,33.12,38.41,33.53,37.81z"/>
		</g>
		
			<ellipse id="Ellipse_2" transform="matrix(0.1577 -0.9875 0.9875 0.1577 -0.3282 48.9149)" class="st2" cx="28.51" cy="24.65" rx="18.27" ry="8.22"/>
		<path id="Path_62" class="st3" d="M20.34,34.75l15.44-23.5C35.3,9.8,34.45,8.5,33.31,7.49L19.92,27.87
			C19.8,30.17,19.95,32.48,20.34,34.75z"/>
		<path id="Path_63" class="st3" d="M31.39,6.61c-0.07-0.01-0.13-0.01-0.2-0.02L20.47,22.91c-0.02,0.15-0.05,0.29-0.08,0.44
			c-0.12,0.77-0.22,1.54-0.3,2.28l12.3-18.73C32.07,6.76,31.74,6.66,31.39,6.61z"/>
		<path id="Path_64" class="st1" d="M33.4,25.43c-1.19,7.47-4.6,13.13-7.61,12.66s-4.49-6.93-3.29-14.4s4.6-13.13,7.61-12.66
			C33.12,11.5,34.6,17.96,33.4,25.43z"/>
		
			<rect id="Rectangle_28" x="14.83" y="24.1" transform="matrix(0.1581 -0.9874 0.9874 0.1581 -0.3545 48.925)" class="st1" width="27.37" height="1.13"/>
		<path id="Path_65" class="st0" d="M34.53,25.61c-1.19,7.47-4.6,13.13-7.61,12.66c-3.01-0.47-4.49-6.93-3.29-14.4
			c1.19-7.48,4.6-13.13,7.61-12.66C34.24,11.68,35.72,18.14,34.53,25.61z"/>
		<path id="Path_66" class="st1" d="M32.4,25.27c-0.66,4.15-2.56,7.3-4.23,7.04c-1.67-0.26-2.49-3.85-1.83-8
			c0.66-4.15,2.56-7.3,4.23-7.04C32.24,17.53,33.07,21.12,32.4,25.27z"/>
		
			<rect id="Rectangle_29" x="21.05" y="23.96" transform="matrix(0.1581 -0.9874 0.9874 0.1581 -0.2365 49.0791)" class="st1" width="15.22" height="1.44"/>
		<path id="Path_67" class="st2" d="M30.98,25.05c-0.66,4.15-2.56,7.3-4.23,7.04c-1.67-0.26-2.49-3.85-1.83-8
			c0.66-4.15,2.56-7.3,4.23-7.04S31.64,20.89,30.98,25.05z"/>
		<path id="Path_68" class="st3" d="M29.15,17.04c-1.67-0.27-3.57,2.88-4.23,7.04c-0.2,1.19-0.27,2.4-0.21,3.61l5.73-9.52
			C30.21,17.61,29.74,17.19,29.15,17.04z"/>
	</g>
	<path id="Path_69" class="st4" d="M23.98,48.75H10.52v-7.9h2.63V11.92H8.19v2.63H0V4.02h34.53L34.5,14.55h-8.19v-2.63h-4.97v28.93
		h2.63L23.98,48.75z"/>
	<path id="Path_70" class="st4" d="M85.87,48.76c-2.33,0.01-4.63-0.54-6.7-1.61c-1.79-0.86-3.36-2.1-4.59-3.65h-3.33v-7.9h8.22
		c1.29,3.51,3.42,5.26,6.4,5.26c1.65,0.11,3.3-0.17,4.83-0.82c1.11-0.63,1.74-1.86,1.61-3.13c0-0.53-0.78-1.05-2.34-1.58
		c-0.99-0.31-2.38-0.66-4.15-1.05c-3.75-0.63-7.37-1.89-10.7-3.71c-2.41-1.42-3.88-4.02-3.86-6.81c0.04-3.21,1.55-6.22,4.09-8.19
		c2.94-2.48,6.69-3.78,10.53-3.65c2.55-0.04,5.06,0.6,7.28,1.84c1.57,0.85,2.94,2.02,4.04,3.43h4.09l-3.95,7.89H92.3
		c0.09-1.12-0.17-2.24-0.73-3.22c-1.47-1.54-3.59-2.3-5.71-2.05c-1.47-0.07-2.95,0.12-4.36,0.56c-1.38,0.53-2.23,1.92-2.08,3.39
		c0,0.53,0.78,1.05,2.34,1.58c0.95,0.29,3.32,0.89,7.11,1.78c2.73,0.56,5.35,1.57,7.75,2.98c2.41,1.42,3.88,4.02,3.86,6.81
		c0.17,3.56-1.5,6.96-4.42,9.01C93.05,47.94,89.48,48.93,85.87,48.76z"/>
	<path id="Path_71" class="st4" d="M124.87,48.76c-2.33,0.01-4.63-0.54-6.7-1.61c-1.79-0.85-3.36-2.1-4.59-3.65h-3.33v-7.9h8.22
		c1.29,3.51,3.42,5.26,6.4,5.26c1.65,0.11,3.3-0.17,4.82-0.82c1.11-0.63,1.74-1.86,1.61-3.13c0-0.53-0.78-1.05-2.34-1.58
		c-0.99-0.31-2.38-0.66-4.15-1.05c-3.75-0.63-7.37-1.89-10.7-3.71c-2.41-1.42-3.88-4.02-3.86-6.81c0.04-3.21,1.55-6.23,4.09-8.19
		c2.94-2.48,6.69-3.78,10.53-3.65c2.55-0.04,5.06,0.6,7.28,1.84c1.57,0.85,2.94,2.02,4.04,3.43h4.09l-3.95,7.89h-5.03
		c0.09-1.12-0.17-2.24-0.73-3.22c-1.47-1.54-3.59-2.3-5.71-2.05c-1.47-0.07-2.95,0.12-4.36,0.56c-1.38,0.53-2.23,1.92-2.08,3.39
		c0,0.53,0.78,1.05,2.34,1.58c0.95,0.29,3.32,0.89,7.11,1.78c2.73,0.56,5.35,1.57,7.75,2.98c2.41,1.42,3.88,4.02,3.86,6.81
		c0.17,3.56-1.5,6.96-4.42,9.01C132.06,47.93,128.49,48.93,124.87,48.76z"/>
	<g id="Group_209" transform="translate(87.664 0)">
		<path id="Path_117" class="st4" d="M118.98,48.75h-10.82V46c-1.9,1.83-5.36,2.75-10.38,2.75c-4.94,0.09-9.7-1.88-13.15-5.43
			c-3.52-3.4-5.49-8.1-5.42-13c-0.06-4.9,1.9-9.6,5.42-13c3.44-3.55,8.2-5.51,13.15-5.43c4.17-0.29,8.29,1.08,11.46,3.81l2.11-3.81
			h7.63v7.9h-2.63v21.06h2.63L118.98,48.75z M97.78,40.86c2.76,0.04,5.41-1.07,7.33-3.06c2.01-1.96,3.11-4.67,3.06-7.47
			c0.06-2.81-1.05-5.51-3.06-7.47c-1.91-1.99-4.57-3.09-7.33-3.06c-2.76-0.04-5.41,1.07-7.33,3.06c-2.01,1.96-3.11,4.67-3.06,7.47
			c-0.06,2.81,1.05,5.51,3.06,7.47C92.37,39.79,95.02,40.9,97.78,40.86L97.78,40.86z"/>
		<path id="Path_118" class="st4" d="M147.12,63.24c-3.81,0.15-7.58-0.84-10.82-2.84c-2.01-1.2-3.62-2.96-4.65-5.06h-1.78v-7.89
			h8.19c0,5.26,3.02,7.9,9.06,7.89c3.84,0,6.49-1.1,7.96-3.3c0.69-0.96,1.08-2.1,1.11-3.27v-2.75c-1.9,1.83-5.36,2.75-10.38,2.75
			c-4.94,0.09-9.7-1.88-13.15-5.43c-3.52-3.4-5.49-8.1-5.42-13c-0.06-4.9,1.91-9.6,5.43-13c3.44-3.55,8.19-5.51,13.13-5.43
			c4.17-0.29,8.29,1.08,11.46,3.81l2.11-3.81H167v7.9h-2.63v28.95c-0.04,2.55-0.79,5.04-2.16,7.19
			C159.3,60.81,154.27,63.24,147.12,63.24z M145.8,40.87c2.76,0.04,5.41-1.07,7.33-3.06c2.01-1.96,3.11-4.67,3.06-7.47
			c0.06-2.81-1.05-5.51-3.06-7.47c-1.92-1.98-4.57-3.09-7.33-3.05c-2.76-0.04-5.41,1.07-7.33,3.06c-2.01,1.96-3.11,4.67-3.06,7.47
			c-0.06,2.81,1.05,5.51,3.06,7.47C140.39,39.8,143.04,40.9,145.8,40.87z"/>
		<path id="Path_119" class="st4" d="M214.76,48.75h-10.82V46c-1.91,1.83-5.37,2.75-10.38,2.75c-4.94,0.08-9.7-1.88-13.14-5.43
			c-3.53-3.4-5.49-8.1-5.43-13c-0.06-4.9,1.9-9.6,5.43-13c3.44-3.55,8.2-5.51,13.14-5.43c4.17-0.29,8.29,1.08,11.46,3.81l2.11-3.81
			h7.63v7.9h-2.63v21.06h2.63V48.75z M193.56,40.86c2.76,0.04,5.41-1.07,7.33-3.06c2.01-1.96,3.11-4.67,3.06-7.47
			c0.06-2.81-1.05-5.51-3.06-7.47c-1.92-1.99-4.57-3.09-7.33-3.06c-2.76-0.04-5.41,1.07-7.33,3.06c-2.01,1.96-3.11,4.67-3.06,7.47
			c-0.06,2.81,1.05,5.51,3.06,7.47C188.15,39.79,190.8,40.9,193.56,40.86L193.56,40.86z"/>
		<path id="Path_120" class="st4" d="M237.66,48.75h-13.45v-7.9h2.63V14.95l10.82-3.63v8.48h-2.63v21.06h2.63V48.75z M231.76,10.53
			c-1.46,0.04-2.86-0.55-3.86-1.61c-1.01-0.94-1.58-2.27-1.55-3.65c-0.03-1.38,0.54-2.71,1.55-3.65c1-1.06,2.4-1.64,3.86-1.61
			c1.46-0.03,2.86,0.55,3.86,1.61c1.02,0.94,1.58,2.28,1.56,3.66c0.02,1.38-0.54,2.71-1.55,3.65
			C234.62,9.99,233.21,10.58,231.76,10.53L231.76,10.53z"/>
		<path id="Path_121" class="st4" d="M290.27,48.75h-13.45v-7.9h2.63V30.33c0.05-2.8-1.06-5.51-3.06-7.47
			c-1.92-1.98-4.56-3.08-7.32-3.05c-2.76-0.04-5.41,1.06-7.33,3.05c-2.01,1.96-3.12,4.67-3.06,7.47v10.53h2.63v7.9h-13.45v-7.9h2.63
			V19.82h-3.43l3.95-7.9h7.66v2.75c1.91-1.83,5.37-2.75,10.38-2.75c4.94-0.08,9.7,1.88,13.14,5.43c3.53,3.4,5.49,8.1,5.43,13v10.53
			h2.63L290.27,48.75z"/>
		<path id="Path_122" class="st4" d="M323.58,38.26h-4.47l-6.35-3.19v-9.39c1.62-0.9,2.92-1.59,3.92-2.08
			c2.12-1.07,3.7-1.94,4.74-2.6c3-1.89,4.5-3.6,4.5-5.12c0-1.58-0.99-2.7-2.98-3.36c-1.11-0.38-2.28-0.58-3.45-0.58
			c-1.9,0-3.79,0.33-5.59,0.97c-1.22,0.41-2.39,0.96-3.48,1.64v2.67h-5.03l-3.43-6.81c1.45-1.44,3.13-2.64,4.97-3.54
			c3.9-1.91,8.2-2.87,12.55-2.81c3.67-0.23,7.31,0.68,10.44,2.6c2.89,2.16,4.46,5.65,4.19,9.24c-0.15,3.83-2.17,7.34-5.41,9.39
			c-1.76,1.29-3.63,2.43-5.59,3.39c-1.31,0.7-2.03,1.07-2.16,1.11v0.58h2.63V38.26z M318.17,52.13c-1.46,0.04-2.86-0.55-3.86-1.61
			c-1.01-0.94-1.57-2.27-1.55-3.66c-0.02-1.38,0.54-2.71,1.55-3.65c1-1.06,2.4-1.64,3.86-1.61c1.46-0.04,2.86,0.55,3.86,1.61
			c1.01,0.94,1.58,2.27,1.55,3.65c0.03,1.38-0.54,2.71-1.55,3.66C321.03,51.58,319.62,52.16,318.17,52.13z"/>
	</g>
</g>
</svg>
